{"glyphs":{"0":{"ha":1014,"x_min":57,"x_max":957,"o":"m 833 127 q 770 54 833 127 q 506 -19 708 -19 q 180 126 303 -19 q 57 486 57 271 q 182 845 57 699 q 508 992 307 992 q 834 846 711 992 q 957 486 957 700 q 833 127 957 274 m 378 294 q 403 257 378 294 q 508 219 428 219 q 638 294 589 219 q 686 486 686 368 q 635 678 686 603 q 506 753 585 753 q 376 679 425 753 q 328 486 328 606 q 378 294 328 368 z "},"1":{"ha":586,"x_min":11,"x_max":492,"o":"m 226 0 l 226 728 l 63 690 l 11 899 l 296 979 l 492 979 l 492 0 l 226 0 z "},"2":{"ha":867,"x_min":46,"x_max":815,"o":"m 46 0 l 46 203 l 410 481 q 506 572 478 532 q 535 656 535 611 q 505 728 535 701 q 426 754 475 754 q 335 726 379 754 q 233 629 292 697 l 51 781 q 224 939 135 889 q 447 989 313 989 q 706 902 607 989 q 806 676 806 815 q 753 494 806 567 q 581 336 700 421 l 414 219 l 815 219 l 815 0 l 46 0 z "},"3":{"ha":863,"x_min":25,"x_max":814,"o":"m 439 -19 q 25 153 181 -19 l 194 322 q 426 211 303 211 q 517 238 483 211 q 551 313 551 265 q 510 386 551 360 q 393 413 468 413 l 279 413 l 240 553 l 464 754 l 92 754 l 92 972 l 794 972 l 794 779 l 563 581 q 814 304 814 525 q 709 69 814 158 q 439 -19 604 -19 z "},"4":{"ha":957,"x_min":18,"x_max":918,"o":"m 533 0 l 533 189 l 63 189 l 18 379 l 522 979 l 794 979 l 794 390 l 918 390 l 918 189 l 794 189 l 794 0 l 533 0 m 301 389 l 533 389 l 533 668 l 301 389 z "},"5":{"ha":875,"x_min":26,"x_max":822,"o":"m 421 -19 q 26 135 192 -19 l 181 315 q 417 210 306 210 q 522 241 483 210 q 560 326 560 272 q 520 408 560 378 q 417 439 481 439 q 261 390 342 439 l 101 479 l 129 972 l 779 972 l 779 750 l 342 750 l 333 603 q 489 638 407 638 q 726 558 631 638 q 822 326 822 478 q 712 74 822 167 q 421 -19 601 -19 z "},"6":{"ha":919,"x_min":57,"x_max":860,"o":"m 474 -19 q 176 92 288 -19 q 57 458 57 211 q 173 844 57 696 q 508 992 289 992 q 832 885 689 992 l 706 694 q 513 768 607 768 q 385 713 431 768 q 329 561 339 657 q 539 636 428 636 q 767 554 674 636 q 860 331 860 472 q 749 76 860 171 q 474 -19 638 -19 m 363 226 q 381 208 363 226 q 463 190 400 190 q 561 226 525 190 q 597 318 597 261 q 560 407 597 371 q 460 443 522 443 q 361 408 397 443 q 325 317 325 372 q 363 226 325 263 z "},"7":{"ha":853,"x_min":64,"x_max":813,"o":"m 86 0 l 514 746 l 64 746 l 64 972 l 813 972 l 813 769 l 383 0 l 86 0 z "},"8":{"ha":875,"x_min":38,"x_max":838,"o":"m 726 62 q 670 23 726 62 q 438 -17 614 -17 q 149 63 261 -17 q 38 271 38 143 q 204 504 38 433 q 71 718 71 578 q 173 913 71 836 q 438 989 275 989 q 702 912 600 989 q 804 715 804 835 q 671 504 804 578 q 794 412 751 467 q 838 269 838 357 q 726 62 838 140 m 335 217 q 353 201 335 217 q 438 185 372 185 q 540 217 503 185 q 578 297 578 250 q 538 374 578 344 q 438 403 499 403 q 336 373 375 403 q 297 294 297 343 q 335 217 297 249 m 351 608 q 367 593 351 608 q 438 578 383 578 q 524 608 492 578 q 557 686 557 638 q 524 758 557 728 q 438 789 490 789 q 351 759 383 789 q 318 685 318 729 q 351 608 318 639 z "},"9":{"ha":919,"x_min":60,"x_max":863,"o":"m 413 -19 q 74 96 221 -19 l 200 282 q 408 204 299 204 q 536 258 490 204 q 592 407 582 311 q 386 328 508 328 q 151 411 242 328 q 60 638 60 494 q 169 894 60 797 q 447 992 278 992 q 619 964 550 992 q 746 878 688 936 q 863 515 863 764 q 744 126 863 271 q 413 -19 626 -19 m 359 557 q 378 539 359 557 q 460 521 397 521 q 559 557 522 521 q 596 650 596 593 q 558 744 596 707 q 457 782 519 782 q 358 745 394 782 q 321 649 321 708 q 359 557 321 593 z "}," ":{"ha":385,"x_min":0,"x_max":0,"o":""},"!":{"ha":450,"x_min":75,"x_max":375,"o":"m 88 0 l 88 236 l 363 236 l 363 0 l 88 0 m 156 317 l 75 854 l 75 972 l 375 972 l 375 854 l 294 317 l 156 317 z "},"\"":{"ha":746,"x_min":47,"x_max":718,"o":"m 47 474 l 78 972 l 361 972 l 361 965 l 185 474 l 47 474 m 403 474 l 435 972 l 718 972 l 718 965 l 542 474 l 403 474 z "},"#":{"ha":981,"x_min":40,"x_max":939,"o":"m 117 0 l 149 188 l 40 188 l 40 411 l 188 411 l 214 567 l 86 567 l 86 790 l 253 790 l 283 972 l 485 972 l 453 790 l 629 790 l 660 972 l 861 972 l 831 790 l 939 790 l 939 567 l 792 567 l 765 411 l 893 411 l 893 188 l 728 188 l 694 0 l 493 0 l 526 188 l 350 188 l 318 0 l 117 0 m 382 406 l 568 406 l 596 572 l 411 572 l 382 406 z "},"$":{"ha":925,"x_min":35,"x_max":882,"o":"m 410 -136 l 410 3 q 35 140 196 25 l 160 325 q 418 211 293 232 l 418 378 q 162 486 243 418 q 81 681 81 554 q 168 884 81 806 q 413 974 256 963 l 413 1053 l 557 1053 l 557 969 q 850 861 717 951 l 736 675 q 550 758 654 733 l 550 597 q 802 488 722 557 q 882 292 882 418 q 794 90 882 167 q 554 0 706 14 l 554 -136 l 410 -136 m 549 203 q 642 276 642 213 q 622 323 642 306 q 549 356 601 340 l 549 203 m 419 621 l 419 771 q 325 699 325 763 q 345 653 325 671 q 419 621 365 636 z "},"%":{"ha":1249,"x_min":49,"x_max":1200,"o":"m 156 0 l 906 972 l 1093 972 l 343 0 l 156 0 m 1129 63 q 1094 24 1129 63 q 949 -14 1058 -14 q 769 62 839 -14 q 699 249 699 138 q 768 434 699 358 q 950 510 838 510 q 1131 434 1061 510 q 1200 247 1200 358 q 1129 63 1200 139 m 892 170 q 903 155 892 170 q 950 139 915 139 q 1008 169 985 139 q 1031 249 1031 200 q 1008 326 1031 296 q 949 357 985 357 q 890 327 911 357 q 868 247 868 297 q 892 170 868 201 m 299 463 q 118 538 188 463 q 49 725 49 614 q 118 910 49 835 q 300 986 188 986 q 481 910 411 986 q 550 724 550 835 q 479 538 550 614 q 299 463 408 463 m 242 646 q 253 631 242 646 q 300 615 265 615 q 358 646 335 615 q 381 725 381 676 q 357 802 381 771 q 299 833 333 833 q 240 803 263 833 q 218 724 218 772 q 242 646 218 676 z "},"&":{"ha":969,"x_min":29,"x_max":947,"o":"m 765 -19 l 665 82 q 376 -17 536 -17 q 126 59 224 -17 q 29 267 29 135 q 226 539 29 450 q 163 728 163 631 q 246 915 163 838 q 468 992 329 992 q 678 920 599 992 q 757 739 757 849 q 567 486 757 574 l 675 381 q 767 535 718 443 l 944 446 q 817 240 876 322 l 947 111 l 765 -19 m 413 182 q 528 224 465 182 l 368 386 q 299 278 299 344 q 331 208 299 235 q 413 182 363 182 m 440 607 q 543 729 543 653 q 522 785 543 764 q 468 807 501 807 q 412 783 433 807 q 390 718 390 758 q 440 607 390 669 z "},"'":{"ha":394,"x_min":47,"x_max":367,"o":"m 47 474 l 78 972 l 367 972 l 367 965 l 190 474 l 47 474 z "},"(":{"ha":618,"x_min":61,"x_max":576,"o":"m 467 -196 q 163 52 264 -90 q 61 399 61 194 q 163 745 61 603 q 467 993 264 888 l 576 829 q 380 635 440 736 q 319 399 319 535 q 380 162 319 263 q 576 -32 440 61 l 467 -196 z "},")":{"ha":618,"x_min":42,"x_max":557,"o":"m 151 -196 l 42 -32 q 238 162 178 61 q 299 399 299 263 q 238 635 299 535 q 42 829 178 736 l 151 993 q 456 745 354 888 q 557 399 557 603 q 456 52 557 194 q 151 -196 354 -90 z "},"*":{"ha":590,"x_min":39,"x_max":551,"o":"m 222 471 l 257 654 l 114 532 l 39 660 l 215 722 l 39 785 l 114 914 l 257 792 l 222 975 l 368 975 l 333 792 l 476 914 l 551 785 l 375 722 l 551 660 l 476 532 l 333 654 l 368 471 l 222 471 z "},"+":{"ha":889,"x_min":89,"x_max":800,"o":"m 324 133 l 324 372 l 89 372 l 89 606 l 324 606 l 324 844 l 565 844 l 565 606 l 800 606 l 800 372 l 565 372 l 565 133 l 324 133 z "},",":{"ha":394,"x_min":28,"x_max":335,"o":"m 49 -229 l 28 -128 q 167 -3 167 -111 l 167 3 l 60 3 l 60 274 l 335 274 l 335 53 q 261 -160 335 -94 q 49 -229 188 -225 z "},"-":{"ha":567,"x_min":56,"x_max":511,"o":"m 56 318 l 56 550 l 511 550 l 511 318 l 56 318 z "},".":{"ha":394,"x_min":60,"x_max":335,"o":"m 60 0 l 60 271 l 335 271 l 335 0 l 60 0 z "},"/":{"ha":743,"x_min":-53,"x_max":776,"o":"m -53 -178 l 563 1108 l 776 1108 l 161 -178 l -53 -178 z "},":":{"ha":408,"x_min":67,"x_max":342,"o":"m 67 0 l 67 271 l 342 271 l 342 0 l 67 0 m 67 481 l 67 751 l 342 751 l 342 481 l 67 481 z "},";":{"ha":408,"x_min":35,"x_max":342,"o":"m 56 -232 l 35 -131 q 174 -6 174 -114 l 174 0 l 67 0 l 67 271 l 342 271 l 342 50 q 268 -162 342 -97 q 56 -232 194 -228 m 67 481 l 67 751 l 342 751 l 342 481 l 67 481 z "},"<":{"ha":889,"x_min":90,"x_max":781,"o":"m 781 90 l 90 365 l 90 611 l 781 886 l 781 640 l 326 489 l 781 338 l 781 90 z "},"=":{"ha":889,"x_min":103,"x_max":785,"o":"m 103 186 l 103 418 l 785 418 l 785 186 l 103 186 m 103 560 l 103 792 l 785 792 l 785 560 l 103 560 z "},">":{"ha":889,"x_min":108,"x_max":799,"o":"m 108 90 l 108 336 l 563 488 l 108 639 l 108 886 l 799 611 l 799 365 l 108 90 z "},"?":{"ha":750,"x_min":14,"x_max":721,"o":"m 208 0 l 208 236 l 482 236 l 482 0 l 208 0 m 265 317 l 231 549 l 242 561 q 409 599 358 571 q 460 674 460 626 q 433 730 460 710 q 356 750 406 750 q 153 658 256 750 l 14 842 q 374 988 160 988 q 625 908 529 988 q 721 693 721 829 q 649 503 721 571 q 450 406 578 436 l 433 317 l 265 317 z "},"@":{"ha":1340,"x_min":63,"x_max":1276,"o":"m 682 -225 q 239 -49 415 -225 q 63 382 63 128 q 240 813 63 635 q 678 992 418 992 q 1103 831 931 992 q 1276 451 1276 669 q 1190 176 1276 274 q 981 79 1103 79 q 767 185 828 79 q 563 82 678 82 q 381 159 453 82 q 308 361 308 236 q 399 616 308 510 q 615 722 490 722 q 801 619 736 722 l 818 704 l 1033 671 l 969 313 q 964 251 964 285 q 988 192 964 215 q 1054 169 1013 169 q 1172 244 1125 169 q 1218 451 1218 318 q 1064 792 1218 649 q 678 936 910 936 q 279 776 438 936 q 121 382 121 615 q 278 -11 121 147 q 682 -169 436 -169 q 1022 -76 864 -169 l 1050 -121 q 682 -225 879 -225 m 632 269 q 726 316 688 269 q 765 429 765 363 q 737 506 765 478 q 664 535 708 535 q 569 489 608 535 q 531 378 531 443 q 559 298 531 326 q 632 269 588 269 z "},"A":{"ha":1104,"x_min":8,"x_max":1096,"o":"m 8 0 l 422 979 l 682 979 l 1096 0 l 807 0 l 736 174 l 361 174 l 292 0 l 8 0 m 440 383 l 658 383 l 550 660 l 440 383 z "},"B":{"ha":993,"x_min":86,"x_max":956,"o":"m 86 0 l 86 972 l 585 972 q 850 885 763 972 q 913 725 913 822 q 763 508 913 574 q 906 421 857 478 q 956 268 956 364 q 858 72 956 143 q 588 0 761 0 l 86 0 m 349 217 l 557 217 q 686 308 686 217 q 554 396 686 396 l 349 396 l 349 217 m 349 585 l 518 585 q 646 672 646 585 q 524 756 646 756 l 349 756 l 349 585 z "},"C":{"ha":1014,"x_min":53,"x_max":985,"o":"m 554 -19 q 198 124 343 -19 q 53 486 53 268 q 199 846 53 700 q 565 992 346 992 q 974 786 825 992 l 776 633 q 563 746 686 746 q 396 671 461 746 q 331 486 331 596 q 396 301 331 375 q 563 226 461 226 q 683 256 633 226 q 782 344 733 286 l 985 200 q 807 38 908 96 q 554 -19 706 -19 z "},"D":{"ha":1063,"x_min":86,"x_max":1010,"o":"m 86 0 l 86 972 l 461 972 q 863 839 717 972 q 1010 489 1010 706 q 861 137 1010 274 q 456 0 713 0 l 86 0 m 356 239 l 465 239 q 660 304 588 239 q 733 488 733 369 q 660 669 733 603 q 465 736 588 736 l 356 736 l 356 239 z "},"E":{"ha":926,"x_min":86,"x_max":875,"o":"m 86 0 l 86 972 l 868 972 l 868 743 l 353 743 l 353 596 l 819 596 l 819 383 l 353 383 l 353 229 l 875 229 l 875 0 l 86 0 z "},"F":{"ha":900,"x_min":86,"x_max":864,"o":"m 86 0 l 86 972 l 864 972 l 864 736 l 356 736 l 356 571 l 815 571 l 815 347 l 356 347 l 356 0 l 86 0 z "},"G":{"ha":1068,"x_min":53,"x_max":1004,"o":"m 582 -19 q 203 123 353 -19 q 53 486 53 265 q 202 846 53 700 q 576 992 351 992 q 971 850 807 992 l 813 660 q 578 751 703 751 q 401 674 472 751 q 329 482 329 596 q 403 288 329 364 q 593 213 478 213 q 749 253 688 213 l 749 371 l 557 371 l 557 568 l 1004 568 l 1004 131 q 582 -19 822 -19 z "},"H":{"ha":1057,"x_min":86,"x_max":971,"o":"m 86 0 l 86 972 l 356 972 l 356 608 l 701 608 l 701 972 l 971 972 l 971 0 l 701 0 l 701 369 l 356 369 l 356 0 l 86 0 z "},"I":{"ha":454,"x_min":92,"x_max":363,"o":"m 92 0 l 92 972 l 363 972 l 363 0 l 92 0 z "},"J":{"ha":783,"x_min":6,"x_max":710,"o":"m 347 -17 q 6 147 125 -17 l 179 311 q 331 221 254 221 q 413 256 383 221 q 442 357 442 290 l 442 972 l 710 972 l 710 356 q 614 82 710 178 q 347 -17 515 -17 z "},"K":{"ha":1014,"x_min":86,"x_max":1022,"o":"m 86 0 l 86 972 l 356 972 l 356 578 l 690 972 l 1010 972 l 642 554 l 1022 0 l 699 0 l 454 361 l 356 251 l 356 0 l 86 0 z "},"L":{"ha":856,"x_min":86,"x_max":826,"o":"m 86 0 l 86 972 l 356 972 l 356 236 l 826 236 l 826 0 l 86 0 z "},"M":{"ha":1206,"x_min":86,"x_max":1119,"o":"m 86 0 l 86 972 l 371 972 l 603 596 l 835 972 l 1119 972 l 1119 0 l 851 0 l 851 558 l 603 178 l 597 178 l 350 556 l 350 0 l 86 0 z "},"N":{"ha":1090,"x_min":86,"x_max":1004,"o":"m 86 0 l 86 972 l 338 972 l 738 458 l 738 972 l 1004 972 l 1004 0 l 768 0 l 353 533 l 353 0 l 86 0 z "},"O":{"ha":1154,"x_min":53,"x_max":1100,"o":"m 949 128 q 874 54 949 128 q 575 -19 799 -19 q 202 127 351 -19 q 53 486 53 274 q 203 844 53 697 q 578 992 354 992 q 951 845 801 992 q 1100 486 1100 699 q 949 128 1100 275 m 578 224 q 756 300 688 224 q 825 486 825 376 q 754 672 825 594 q 575 749 683 749 q 398 672 467 749 q 329 486 329 596 q 399 301 329 378 q 578 224 469 224 z "},"P":{"ha":935,"x_min":86,"x_max":907,"o":"m 86 0 l 86 972 l 503 972 q 798 881 689 972 q 907 628 907 790 q 792 369 907 461 q 489 278 676 278 l 356 278 l 356 0 l 86 0 m 356 489 l 483 489 q 597 524 556 489 q 638 618 638 558 q 597 713 638 681 q 482 746 556 746 l 356 746 l 356 489 z "},"Q":{"ha":1154,"x_min":53,"x_max":1114,"o":"m 978 -29 l 871 67 q 575 -19 739 -19 q 202 127 351 -19 q 53 486 53 274 q 203 844 53 697 q 578 992 354 992 q 951 845 801 992 q 1100 486 1100 699 q 1014 207 1100 329 l 1114 122 l 978 -29 m 578 219 q 676 238 629 219 l 542 353 l 678 506 l 810 386 q 826 483 826 431 q 756 671 826 593 q 575 749 685 749 q 398 671 467 749 q 329 483 329 593 q 399 297 329 375 q 578 219 469 219 z "},"R":{"ha":999,"x_min":86,"x_max":981,"o":"m 86 0 l 86 972 l 546 972 q 863 868 758 972 q 949 638 949 782 q 749 339 949 424 l 981 0 l 669 0 l 474 294 l 356 294 l 356 0 l 86 0 m 356 506 l 533 506 q 640 537 601 506 q 678 624 678 568 q 640 710 678 681 q 532 739 601 739 l 356 739 l 356 506 z "},"S":{"ha":906,"x_min":13,"x_max":861,"o":"m 468 -17 q 13 144 193 -17 l 163 324 q 478 207 308 207 q 589 276 589 207 q 556 327 589 307 q 425 369 522 347 q 278 410 336 390 q 166 465 221 431 q 85 551 111 499 q 58 678 58 604 q 160 902 58 815 q 435 989 263 989 q 835 860 674 989 l 700 669 q 428 765 564 765 q 356 747 381 765 q 331 700 331 729 q 365 647 331 667 q 499 606 399 628 q 772 498 682 565 q 861 300 861 431 q 754 68 861 153 q 468 -17 647 -17 z "},"T":{"ha":917,"x_min":32,"x_max":885,"o":"m 324 0 l 324 736 l 32 736 l 32 972 l 885 972 l 885 736 l 593 736 l 593 0 l 324 0 z "},"U":{"ha":1053,"x_min":74,"x_max":979,"o":"m 524 -18 q 192 93 310 -18 q 74 426 74 204 l 74 972 l 347 972 l 347 432 q 395 277 347 329 q 526 225 443 225 q 658 275 610 225 q 706 425 706 325 l 706 972 l 979 972 l 979 433 q 859 94 979 206 q 524 -18 739 -18 z "},"V":{"ha":1056,"x_min":8,"x_max":1047,"o":"m 403 -7 l 8 972 l 310 972 l 531 357 l 751 972 l 1047 972 l 653 -7 l 403 -7 z "},"W":{"ha":1551,"x_min":21,"x_max":1531,"o":"m 346 -7 l 21 972 l 306 972 l 475 410 l 663 975 l 894 975 l 1082 410 l 1251 972 l 1531 972 l 1206 -7 l 971 -7 l 775 553 l 581 -7 l 346 -7 z "},"X":{"ha":1017,"x_min":15,"x_max":1001,"o":"m 15 0 l 349 494 l 29 972 l 339 972 l 511 699 l 685 972 l 988 972 l 668 497 l 1001 0 l 692 0 l 506 293 l 318 0 l 15 0 z "},"Y":{"ha":1004,"x_min":-3,"x_max":1007,"o":"m 367 0 l 367 364 l -3 972 l 304 972 l 504 618 l 706 972 l 1007 972 l 638 368 l 638 0 l 367 0 z "},"Z":{"ha":969,"x_min":56,"x_max":915,"o":"m 56 0 l 56 196 l 543 744 l 72 744 l 72 972 l 915 972 l 915 776 l 428 228 l 915 228 l 915 0 l 56 0 z "},"[":{"ha":635,"x_min":92,"x_max":572,"o":"m 92 -181 l 92 972 l 572 972 l 572 793 l 328 793 l 328 -1 l 572 -1 l 572 -181 l 92 -181 z "},"\\":{"ha":743,"x_min":-33,"x_max":796,"o":"m 582 -178 l -33 1108 l 181 1108 l 796 -178 l 582 -178 z "},"]":{"ha":635,"x_min":63,"x_max":543,"o":"m 63 -181 l 63 -1 l 307 -1 l 307 793 l 63 793 l 63 972 l 543 972 l 543 -181 l 63 -181 z "},"^":{"ha":694,"x_min":58,"x_max":636,"o":"m 58 685 l 258 971 l 436 971 l 636 685 l 451 685 l 346 819 l 240 685 l 58 685 z "},"_":{"ha":833,"x_min":-3,"x_max":836,"o":"m -3 -222 l -3 -61 l 836 -61 l 836 -222 l -3 -222 z "},"`":{"ha":694,"x_min":122,"x_max":513,"o":"m 326 815 l 122 993 l 368 1072 l 513 815 l 326 815 z "},"a":{"ha":832,"x_min":33,"x_max":768,"o":"m 286 -17 q 104 45 175 -17 q 33 218 33 107 q 113 393 33 332 q 328 454 192 454 q 508 425 426 454 l 508 438 q 358 560 508 560 q 151 518 257 560 l 97 704 q 401 763 239 763 q 688 671 596 763 q 768 432 768 592 l 768 0 l 507 0 l 507 78 q 286 -17 422 -17 m 381 149 q 475 183 439 149 q 511 272 511 217 l 511 307 q 408 326 465 326 q 319 301 351 326 q 288 231 288 275 q 313 171 288 193 q 381 149 339 149 z "},"b":{"ha":939,"x_min":71,"x_max":896,"o":"m 564 -17 q 335 92 428 -17 l 335 0 l 71 0 l 71 1014 l 335 1014 l 335 651 q 563 768 431 768 q 799 660 701 768 q 896 376 896 553 q 799 91 896 199 q 564 -17 703 -17 m 482 204 q 592 253 547 204 q 636 378 636 301 q 592 499 636 451 q 482 547 547 547 q 374 499 418 547 q 329 375 329 450 q 374 253 329 301 q 482 204 418 204 z "},"c":{"ha":790,"x_min":40,"x_max":768,"o":"m 433 -18 q 153 97 265 -18 q 40 375 40 211 q 154 652 40 538 q 443 767 268 767 q 764 599 658 767 l 588 471 q 451 544 535 544 q 339 496 381 544 q 297 375 297 447 q 339 253 297 301 q 447 204 381 204 q 523 224 492 204 q 589 283 554 243 l 768 154 q 433 -18 651 -18 z "},"d":{"ha":939,"x_min":43,"x_max":868,"o":"m 375 -17 q 140 91 236 -17 q 43 375 43 199 q 139 660 43 553 q 374 768 235 768 q 604 660 510 768 l 604 1014 l 868 1014 l 868 0 l 604 0 l 604 100 q 375 -17 508 -17 m 347 253 q 369 228 347 253 q 456 204 392 204 q 564 253 519 204 q 608 378 608 301 q 564 499 608 451 q 456 547 519 547 q 346 499 390 547 q 301 375 301 450 q 347 253 301 301 z "},"e":{"ha":840,"x_min":40,"x_max":799,"o":"m 443 -18 q 153 90 265 -18 q 40 375 40 199 q 147 655 40 542 q 419 768 254 768 q 701 651 604 768 q 799 357 799 535 q 797 303 799 321 l 294 303 q 457 179 326 179 q 624 256 546 179 l 769 135 q 443 -18 649 -18 m 290 438 l 551 438 q 510 537 544 500 q 421 574 475 574 q 335 537 369 574 q 290 438 301 500 z "},"f":{"ha":561,"x_min":31,"x_max":550,"o":"m 118 0 l 118 540 l 31 540 l 31 747 l 118 747 l 118 764 q 182 958 118 894 q 378 1024 247 1024 q 550 1003 481 1024 l 550 817 q 451 832 501 832 q 376 761 376 832 l 376 743 l 549 743 l 549 540 l 381 540 l 381 0 l 118 0 z "},"g":{"ha":939,"x_min":43,"x_max":868,"o":"m 440 -225 q 64 -139 232 -225 l 149 36 q 411 -35 276 -35 q 608 150 608 -35 l 608 179 q 376 67 511 67 q 138 163 233 67 q 43 418 43 258 q 138 672 43 575 q 368 768 233 768 q 604 663 504 768 l 604 751 l 868 751 l 868 181 q 771 -119 868 -22 q 440 -225 665 -225 m 456 269 q 565 311 522 269 q 608 418 608 353 q 565 522 608 481 q 456 563 522 563 q 344 521 388 563 q 301 414 301 479 q 344 310 301 351 q 456 269 388 269 z "},"h":{"ha":881,"x_min":71,"x_max":815,"o":"m 71 0 l 71 1014 l 335 1014 l 335 649 q 560 768 428 768 q 747 694 679 768 q 815 492 815 619 l 815 0 l 551 0 l 551 407 q 523 500 551 467 q 446 533 494 533 q 365 500 396 533 q 335 407 335 467 l 335 0 l 71 0 z "},"i":{"ha":417,"x_min":71,"x_max":346,"o":"m 76 0 l 76 751 l 340 751 l 340 0 l 76 0 m 71 819 l 71 1014 l 346 1014 l 346 819 l 71 819 z "},"j":{"ha":419,"x_min":-36,"x_max":346,"o":"m 72 -226 q -36 -217 39 -226 l -36 -42 q -1 -43 -25 -43 q 58 -23 39 -43 q 76 44 76 -3 l 76 751 l 340 751 l 340 33 q 273 -165 340 -104 q 72 -226 206 -226 m 71 819 l 71 1014 l 346 1014 l 346 819 l 71 819 z "},"k":{"ha":838,"x_min":71,"x_max":844,"o":"m 71 0 l 71 1014 l 335 1014 l 335 500 l 539 751 l 838 751 l 576 450 l 844 0 l 554 0 l 403 256 l 335 176 l 335 0 l 71 0 z "},"l":{"ha":417,"x_min":76,"x_max":340,"o":"m 76 0 l 76 1014 l 340 1014 l 340 0 l 76 0 z "},"m":{"ha":1349,"x_min":71,"x_max":1283,"o":"m 71 0 l 71 751 l 335 751 l 335 649 q 558 768 428 768 q 775 646 711 768 q 1026 768 882 768 q 1215 696 1147 768 q 1283 493 1283 624 l 1283 0 l 1019 0 l 1019 408 q 992 501 1019 468 q 917 533 964 533 q 838 501 868 533 q 808 408 808 468 l 808 0 l 544 0 l 544 408 q 517 501 544 468 q 442 533 489 533 q 364 501 393 533 q 335 408 335 468 l 335 0 l 71 0 z "},"n":{"ha":881,"x_min":71,"x_max":815,"o":"m 71 0 l 71 751 l 335 751 l 335 646 q 560 768 429 768 q 747 694 679 768 q 815 492 815 619 l 815 0 l 551 0 l 551 407 q 523 500 551 467 q 446 533 494 533 q 365 500 396 533 q 335 407 335 467 l 335 0 l 71 0 z "},"o":{"ha":911,"x_min":40,"x_max":871,"o":"m 454 -18 q 158 97 276 -18 q 40 375 40 211 q 159 653 40 538 q 457 768 278 768 q 753 653 635 768 q 871 375 871 539 q 752 97 871 213 q 454 -18 633 -18 m 457 206 q 571 254 528 206 q 614 375 614 303 q 568 494 614 444 q 454 544 522 544 q 340 496 383 544 q 297 375 297 447 q 343 256 297 306 q 457 206 389 206 z "},"p":{"ha":939,"x_min":71,"x_max":896,"o":"m 71 -222 l 71 751 l 335 751 l 335 651 q 563 768 431 768 q 799 660 701 768 q 896 376 896 553 q 799 91 896 199 q 564 -17 703 -17 q 335 92 428 -17 l 335 -222 l 71 -222 m 482 204 q 592 253 547 204 q 636 378 636 301 q 592 499 636 451 q 482 547 547 547 q 374 499 418 547 q 329 375 329 450 q 374 253 329 301 q 482 204 418 204 z "},"q":{"ha":939,"x_min":43,"x_max":868,"o":"m 604 -222 l 604 100 q 375 -17 508 -17 q 140 91 236 -17 q 43 375 43 199 q 139 660 43 553 q 374 768 235 768 q 604 660 510 768 l 604 751 l 868 751 l 868 -222 l 604 -222 m 347 253 q 369 228 347 253 q 456 204 392 204 q 564 253 519 204 q 608 378 608 301 q 564 499 608 451 q 456 547 519 547 q 346 499 390 547 q 301 375 301 450 q 347 253 301 301 z "},"r":{"ha":594,"x_min":71,"x_max":572,"o":"m 71 0 l 71 751 l 335 751 l 335 600 q 572 764 407 771 l 572 486 l 550 486 q 335 233 335 486 l 335 0 l 71 0 z "},"s":{"ha":714,"x_min":14,"x_max":676,"o":"m 369 -17 q 14 94 168 -17 l 113 254 q 371 168 243 168 q 438 211 438 168 q 410 244 438 232 q 317 275 383 257 q 117 362 185 311 q 50 518 50 413 q 134 701 50 635 q 351 767 218 767 q 661 679 525 767 l 571 513 q 349 582 446 582 q 288 543 288 582 q 314 510 288 524 q 410 476 340 497 q 515 441 474 458 q 597 396 557 424 q 657 328 638 368 q 676 235 676 289 q 593 49 676 114 q 369 -17 510 -17 z "},"t":{"ha":599,"x_min":28,"x_max":556,"o":"m 369 -15 q 117 233 117 -15 l 117 539 l 28 539 l 28 751 l 117 751 l 117 942 l 381 942 l 381 751 l 556 751 l 556 539 l 381 539 l 381 285 q 453 210 381 210 q 553 235 500 210 l 553 28 q 369 -15 476 -15 z "},"u":{"ha":881,"x_min":65,"x_max":810,"o":"m 321 -17 q 133 57 201 -17 q 65 260 65 131 l 65 751 l 329 751 l 329 344 q 358 251 329 285 q 436 218 388 218 q 515 251 485 218 q 546 344 546 285 l 546 751 l 810 751 l 810 0 l 546 0 l 546 103 q 321 -17 453 -17 z "},"v":{"ha":868,"x_min":14,"x_max":854,"o":"m 314 -6 l 14 751 l 292 751 l 436 313 l 581 751 l 854 751 l 554 -6 l 314 -6 z "},"w":{"ha":1196,"x_min":17,"x_max":1179,"o":"m 246 -6 l 17 751 l 275 751 l 374 374 l 489 754 l 707 754 l 824 371 l 925 751 l 1179 751 l 947 -6 l 719 -6 l 597 385 l 472 -6 l 246 -6 z "},"x":{"ha":818,"x_min":11,"x_max":807,"o":"m 11 0 l 264 379 l 15 751 l 300 751 l 411 567 l 522 751 l 801 751 l 554 381 l 807 0 l 524 0 l 407 193 l 289 0 l 11 0 z "},"y":{"ha":869,"x_min":15,"x_max":854,"o":"m 293 -226 q 51 -161 168 -226 l 133 24 q 249 -17 200 -17 q 310 14 288 -17 l 15 751 l 292 751 l 442 299 l 583 751 l 854 751 l 579 18 q 467 -171 529 -115 q 293 -226 404 -226 z "},"z":{"ha":782,"x_min":44,"x_max":742,"o":"m 44 0 l 44 174 l 392 542 l 57 542 l 57 751 l 742 751 l 742 578 l 393 210 l 742 210 l 742 0 l 44 0 z "},"{":{"ha":681,"x_min":47,"x_max":636,"o":"m 596 -196 q 311 -108 393 -171 q 229 72 229 -46 q 231 122 229 82 q 233 175 233 163 q 194 281 233 251 q 69 311 154 311 l 47 311 l 47 486 l 69 486 q 194 516 154 486 q 233 622 233 546 q 231 675 233 635 q 229 725 229 715 q 311 906 229 843 q 596 993 393 968 l 636 839 q 497 783 529 815 q 464 682 464 750 q 466 635 464 671 q 468 585 468 600 q 313 399 468 442 q 468 213 468 356 q 466 162 468 197 q 464 115 464 126 q 497 15 464 47 q 636 -42 529 -18 l 596 -196 z "},"|":{"ha":493,"x_min":146,"x_max":347,"o":"m 146 -178 l 146 1108 l 347 1108 l 347 -178 l 146 -178 z "},"}":{"ha":681,"x_min":44,"x_max":633,"o":"m 85 -196 l 44 -42 q 184 15 151 -18 q 217 115 217 47 q 215 162 217 126 q 213 213 213 197 q 368 399 213 356 q 213 585 213 442 q 215 635 213 600 q 217 682 217 671 q 184 783 217 750 q 44 839 151 815 l 85 993 q 369 906 288 968 q 451 725 451 843 q 449 675 451 715 q 447 622 447 635 q 487 516 447 546 q 611 486 526 486 l 633 486 l 633 311 l 611 311 q 487 281 526 311 q 447 175 447 251 q 449 122 447 163 q 451 72 451 82 q 369 -108 451 -46 q 85 -196 288 -171 z "},"~":{"ha":701,"x_min":57,"x_max":644,"o":"m 185 306 l 57 340 q 120 497 81 447 q 229 547 160 547 q 351 520 275 547 q 446 493 428 493 q 488 508 474 493 q 517 557 501 522 l 644 522 q 581 365 621 415 q 472 315 542 315 q 349 342 426 315 q 254 369 272 369 q 213 356 226 369 q 185 306 200 342 z "}," ":{"ha":385,"x_min":0,"x_max":0,"o":""},"¡":{"ha":450,"x_min":75,"x_max":375,"o":"m 75 0 l 75 118 l 156 656 l 294 656 l 375 118 l 375 0 l 75 0 m 88 736 l 88 972 l 363 972 l 363 736 l 88 736 z "},"¢":{"ha":799,"x_min":44,"x_max":771,"o":"m 281 -8 l 304 128 q 116 267 188 168 q 44 493 44 367 q 154 768 44 657 q 439 883 264 879 l 456 981 l 615 981 l 594 860 q 769 725 707 818 l 608 601 q 543 657 578 639 l 479 307 q 611 386 553 317 l 771 269 q 460 104 661 110 l 440 -8 l 281 -8 m 351 331 l 414 682 q 313 619 351 672 q 274 493 274 565 q 351 331 274 378 z "},"£":{"ha":888,"x_min":61,"x_max":850,"o":"m 61 0 l 61 160 l 165 200 l 165 365 l 61 365 l 61 554 l 165 554 l 165 625 q 261 893 165 797 q 526 989 357 989 q 850 849 724 989 l 686 669 q 544 749 619 749 q 463 715 493 749 q 433 625 433 682 l 433 554 l 733 554 l 733 365 l 433 365 l 433 213 l 840 213 l 840 0 l 61 0 z "},"¤":{"ha":947,"x_min":51,"x_max":924,"o":"m 585 -19 q 310 70 421 -19 q 164 310 200 160 l 51 310 l 51 454 l 146 454 q 144 486 144 464 q 146 524 144 511 l 51 524 l 51 668 l 168 668 q 316 901 207 811 q 586 992 425 992 q 919 835 797 992 l 749 675 q 588 761 681 761 q 436 664 482 761 l 653 664 l 653 524 l 406 524 q 404 486 404 513 q 406 454 404 465 l 653 454 l 653 314 l 433 314 q 593 211 482 211 q 757 303 682 211 l 924 146 q 585 -19 796 -19 z "},"¥":{"ha":983,"x_min":6,"x_max":978,"o":"m 358 0 l 358 129 l 103 129 l 103 296 l 358 296 l 358 365 l 103 365 l 103 532 l 294 532 l 6 972 l 311 972 l 494 653 l 678 972 l 978 972 l 688 532 l 881 532 l 881 365 l 625 365 l 625 296 l 881 296 l 881 129 l 625 129 l 625 0 l 358 0 z "},"¦":{"ha":308,"x_min":46,"x_max":264,"o":"m 46 -124 l 46 224 l 264 224 l 264 -124 l 46 -124 m 46 571 l 46 918 l 264 918 l 264 571 l 46 571 z "},"§":{"ha":869,"x_min":58,"x_max":811,"o":"m 429 -18 q 242 13 329 -18 q 100 92 156 43 l 207 243 q 435 161 321 161 q 510 206 510 161 q 375 269 510 240 q 140 347 221 303 q 58 474 58 392 q 185 626 58 581 q 119 767 119 676 q 203 927 119 864 q 440 990 286 990 q 627 960 540 990 q 769 881 714 929 l 663 729 q 435 811 549 811 q 360 767 360 811 q 390 733 360 747 q 494 703 419 719 q 619 672 569 686 q 716 633 668 657 q 788 576 764 610 q 811 499 811 543 q 685 346 811 392 q 750 207 750 296 q 667 46 750 110 q 429 -18 583 -18 m 538 413 q 608 464 608 413 q 468 535 608 501 q 331 560 369 560 q 260 508 260 560 q 400 438 260 471 q 538 413 500 413 z "},"¨":{"ha":694,"x_min":81,"x_max":614,"o":"m 81 815 l 81 1014 l 310 1014 l 310 815 l 81 815 m 385 815 l 385 1014 l 614 1014 l 614 815 l 385 815 z "},"©":{"ha":1153,"x_min":74,"x_max":1079,"o":"m 932 130 q 858 55 932 130 q 575 -19 785 -19 q 219 129 365 -19 q 74 486 74 278 q 221 842 74 693 q 578 992 368 992 q 933 843 788 992 q 1079 486 1079 694 q 932 130 1079 279 m 575 36 q 892 169 764 36 q 1021 489 1021 301 q 893 806 1021 675 q 578 936 765 936 q 260 803 389 936 q 132 483 132 671 q 260 167 132 297 q 575 36 388 36 m 583 217 q 383 296 463 217 q 304 493 304 375 q 384 689 304 608 q 588 769 464 769 q 813 660 731 769 l 700 571 q 583 633 649 633 q 494 592 529 633 q 458 492 458 551 q 494 392 458 432 q 583 353 529 353 q 703 417 649 353 l 817 336 q 583 217 728 217 z "},"ª":{"ha":542,"x_min":57,"x_max":472,"o":"m 57 375 l 57 482 l 472 482 l 472 375 l 57 375 m 200 551 q 100 585 139 551 q 61 681 61 619 q 105 776 61 743 q 224 810 149 810 q 322 794 279 810 l 322 800 q 239 868 322 868 q 125 844 189 868 l 96 947 q 263 979 174 979 q 421 928 369 979 q 465 796 465 885 l 465 560 l 321 560 l 321 604 q 200 551 275 551 m 251 643 q 303 662 283 643 q 324 711 324 681 l 324 729 q 267 740 293 740 q 219 726 236 740 q 201 688 201 711 q 215 655 201 667 q 251 643 229 643 z "},"«":{"ha":876,"x_min":42,"x_max":835,"o":"m 264 42 l 42 339 l 42 406 l 264 703 l 454 610 l 274 372 l 454 136 l 264 42 m 646 42 l 401 367 l 401 378 l 646 703 l 835 610 l 654 372 l 835 136 l 646 42 z "},"¬":{"ha":889,"x_min":103,"x_max":785,"o":"m 543 321 l 543 560 l 103 560 l 103 792 l 785 792 l 785 321 l 543 321 z "},"­":{"ha":567,"x_min":56,"x_max":511,"o":"m 56 318 l 56 550 l 511 550 l 511 318 l 56 318 z "},"®":{"ha":1153,"x_min":74,"x_max":1079,"o":"m 932 130 q 858 55 932 130 q 575 -19 785 -19 q 219 129 365 -19 q 74 486 74 278 q 221 842 74 693 q 578 992 368 992 q 933 843 788 992 q 1079 486 1079 694 q 932 130 1079 279 m 575 36 q 892 169 764 36 q 1021 489 1021 301 q 893 806 1021 675 q 578 936 765 936 q 260 803 389 936 q 132 483 132 671 q 260 167 132 297 q 575 36 388 36 m 356 233 l 356 768 l 604 768 q 785 708 725 768 q 831 583 831 663 q 721 419 831 465 l 849 233 l 678 233 l 567 396 l 504 396 l 504 233 l 356 233 m 504 511 l 601 511 q 682 576 682 511 q 600 640 682 640 l 504 640 l 504 511 z "},"¯":{"ha":694,"x_min":86,"x_max":608,"o":"m 86 822 l 86 983 l 608 983 l 608 822 l 86 822 z "},"°":{"ha":656,"x_min":75,"x_max":581,"o":"m 506 561 q 468 525 506 561 q 328 489 431 489 q 150 561 225 489 q 75 736 75 633 q 151 910 75 836 q 328 983 226 983 q 505 910 429 983 q 581 733 581 836 q 506 561 581 633 m 244 651 q 261 634 244 651 q 328 617 278 617 q 411 651 378 617 q 444 736 444 686 q 410 819 444 785 q 328 854 376 854 q 245 819 279 854 q 211 733 211 785 q 244 651 211 685 z "},"±":{"ha":889,"x_min":89,"x_max":800,"o":"m 106 -22 l 106 196 l 788 196 l 788 -22 l 106 -22 m 324 286 l 324 469 l 89 469 l 89 703 l 324 703 l 324 886 l 565 886 l 565 703 l 800 703 l 800 469 l 565 469 l 565 286 l 324 286 z "},"²":{"ha":694,"x_min":0,"x_max":694,"o":"m 0 0 l 0 972 l 694 972 l 694 0 l 0 0 m 113 68 l 583 68 l 347 422 l 113 68 m 68 133 l 306 486 l 68 839 l 68 133 m 625 133 l 625 839 l 388 486 l 625 133 m 347 549 l 583 903 l 113 903 l 347 549 z "},"³":{"ha":694,"x_min":0,"x_max":694,"o":"m 0 0 l 0 972 l 694 972 l 694 0 l 0 0 m 113 68 l 583 68 l 347 422 l 113 68 m 68 133 l 306 486 l 68 839 l 68 133 m 625 133 l 625 839 l 388 486 l 625 133 m 347 549 l 583 903 l 113 903 l 347 549 z "},"´":{"ha":694,"x_min":182,"x_max":572,"o":"m 182 815 l 326 1072 l 572 993 l 368 815 l 182 815 z "},"µ":{"ha":886,"x_min":71,"x_max":815,"o":"m 71 -222 l 71 751 l 335 751 l 335 344 q 364 251 335 285 q 442 218 393 218 q 521 251 490 218 q 551 344 551 285 l 551 751 l 815 751 l 815 0 l 551 0 l 551 103 q 367 -3 471 -3 q 335 0 357 -3 l 335 -222 l 71 -222 z "},"¶":{"ha":828,"x_min":31,"x_max":742,"o":"m 471 0 l 471 306 l 442 306 q 144 392 257 306 q 31 638 31 479 q 140 885 31 797 q 438 972 250 972 l 742 972 l 742 0 l 471 0 z "},"·":{"ha":394,"x_min":60,"x_max":335,"o":"m 60 299 l 60 569 l 335 569 l 335 299 l 60 299 z "},"¸":{"ha":694,"x_min":151,"x_max":453,"o":"m 361 -240 l 151 -151 l 279 21 l 453 21 l 361 -240 z "},"¹":{"ha":694,"x_min":0,"x_max":694,"o":"m 0 0 l 0 972 l 694 972 l 694 0 l 0 0 m 113 68 l 583 68 l 347 422 l 113 68 m 68 133 l 306 486 l 68 839 l 68 133 m 625 133 l 625 839 l 388 486 l 625 133 m 347 549 l 583 903 l 113 903 l 347 549 z "},"º":{"ha":542,"x_min":46,"x_max":496,"o":"m 71 375 l 71 482 l 471 482 l 471 375 l 71 375 m 269 549 q 110 610 174 549 q 46 764 46 672 q 110 917 46 854 q 272 979 175 979 q 432 917 368 979 q 496 764 496 856 q 431 611 496 674 q 269 549 367 549 m 211 699 q 223 685 211 699 q 272 672 235 672 q 332 698 310 672 q 354 764 354 724 q 331 830 354 803 q 269 857 307 857 q 210 831 232 857 q 188 764 188 804 q 211 699 188 725 z "},"»":{"ha":876,"x_min":42,"x_max":835,"o":"m 232 42 l 42 135 l 222 372 l 42 608 l 232 703 l 475 378 l 475 367 l 232 42 m 613 42 l 424 135 l 604 372 l 424 608 l 613 703 l 835 406 l 835 339 l 613 42 z "},"¼":{"ha":694,"x_min":0,"x_max":694,"o":"m 0 0 l 0 972 l 694 972 l 694 0 l 0 0 m 113 68 l 583 68 l 347 422 l 113 68 m 68 133 l 306 486 l 68 839 l 68 133 m 625 133 l 625 839 l 388 486 l 625 133 m 347 549 l 583 903 l 113 903 l 347 549 z "},"½":{"ha":694,"x_min":0,"x_max":694,"o":"m 0 0 l 0 972 l 694 972 l 694 0 l 0 0 m 113 68 l 583 68 l 347 422 l 113 68 m 68 133 l 306 486 l 68 839 l 68 133 m 625 133 l 625 839 l 388 486 l 625 133 m 347 549 l 583 903 l 113 903 l 347 549 z "},"¾":{"ha":694,"x_min":0,"x_max":694,"o":"m 0 0 l 0 972 l 694 972 l 694 0 l 0 0 m 113 68 l 583 68 l 347 422 l 113 68 m 68 133 l 306 486 l 68 839 l 68 133 m 625 133 l 625 839 l 388 486 l 625 133 m 347 549 l 583 903 l 113 903 l 347 549 z "},"¿":{"ha":750,"x_min":31,"x_max":738,"o":"m 376 -15 q 126 64 222 -15 q 31 279 31 143 q 101 469 31 403 q 301 567 172 536 l 317 656 l 485 656 l 521 424 l 508 411 q 341 374 392 401 q 290 299 290 346 q 318 242 290 263 q 396 222 346 222 q 597 314 494 222 l 738 131 q 376 -15 592 -15 m 268 736 l 268 972 l 543 972 l 543 736 l 268 736 z "},"À":{"ha":1104,"x_min":8,"x_max":1096,"o":"m 8 0 l 422 979 l 682 979 l 1096 0 l 807 0 l 736 174 l 361 174 l 292 0 l 8 0 m 440 383 l 658 383 l 550 660 l 440 383 m 476 1038 l 272 1215 l 518 1294 l 663 1038 l 476 1038 z "},"Á":{"ha":1104,"x_min":8,"x_max":1096,"o":"m 8 0 l 422 979 l 682 979 l 1096 0 l 807 0 l 736 174 l 361 174 l 292 0 l 8 0 m 440 383 l 658 383 l 550 660 l 440 383 m 443 1038 l 588 1294 l 833 1215 l 629 1038 l 443 1038 z "},"Â":{"ha":1104,"x_min":8,"x_max":1096,"o":"m 8 0 l 422 979 l 682 979 l 1096 0 l 807 0 l 736 174 l 361 174 l 292 0 l 8 0 m 440 383 l 658 383 l 550 660 l 440 383 m 268 1038 l 446 1267 l 660 1267 l 838 1038 l 668 1038 l 551 1122 l 435 1038 l 268 1038 z "},"Ã":{"ha":1104,"x_min":8,"x_max":1096,"o":"m 8 0 l 422 979 l 682 979 l 1096 0 l 807 0 l 736 174 l 361 174 l 292 0 l 8 0 m 440 383 l 658 383 l 550 660 l 440 383 m 386 1028 l 260 1063 q 322 1219 282 1169 q 432 1269 363 1269 q 554 1242 478 1269 q 649 1215 631 1215 q 690 1230 676 1215 q 719 1279 704 1244 l 846 1244 q 783 1088 824 1138 q 674 1038 743 1038 q 551 1065 628 1038 q 457 1092 475 1092 q 415 1077 429 1092 q 386 1028 401 1063 z "},"Ä":{"ha":1104,"x_min":8,"x_max":1096,"o":"m 8 0 l 422 979 l 682 979 l 1096 0 l 807 0 l 736 174 l 361 174 l 292 0 l 8 0 m 440 383 l 658 383 l 550 660 l 440 383 m 286 1038 l 286 1236 l 515 1236 l 515 1038 l 286 1038 m 590 1038 l 590 1236 l 819 1236 l 819 1038 l 590 1038 z "},"Å":{"ha":1104,"x_min":8,"x_max":1096,"o":"m 8 0 l 411 954 q 368 1064 368 1001 q 423 1187 368 1135 q 553 1239 478 1239 q 681 1187 626 1239 q 736 1061 736 1135 q 693 954 736 1001 l 1096 0 l 807 0 l 736 174 l 361 174 l 292 0 l 8 0 m 553 969 q 617 997 590 969 q 644 1064 644 1025 q 617 1127 644 1100 q 553 1154 590 1154 q 487 1127 514 1154 q 460 1061 460 1100 q 487 997 460 1024 q 553 969 514 969 m 440 383 l 658 383 l 550 660 l 440 383 z "},"Æ":{"ha":1476,"x_min":-7,"x_max":1424,"o":"m -7 0 l 507 972 l 1417 972 l 1417 743 l 932 743 l 932 596 l 1368 596 l 1368 383 l 932 383 l 932 229 l 1424 229 l 1424 0 l 669 0 l 669 174 l 356 174 l 265 0 l -7 0 m 464 383 l 669 383 l 669 751 l 653 751 l 464 383 z "},"Ç":{"ha":1014,"x_min":53,"x_max":985,"o":"m 529 -240 l 319 -151 l 428 -4 q 158 171 263 38 q 53 486 53 304 q 199 846 53 700 q 565 992 346 992 q 978 789 832 992 l 775 632 q 563 746 683 746 q 396 671 461 746 q 331 486 331 596 q 396 301 331 375 q 563 226 461 226 q 683 256 633 226 q 782 344 733 286 l 985 200 q 607 -17 842 3 l 529 -240 z "},"È":{"ha":926,"x_min":86,"x_max":875,"o":"m 86 0 l 86 972 l 868 972 l 868 743 l 353 743 l 353 596 l 819 596 l 819 383 l 353 383 l 353 229 l 875 229 l 875 0 l 86 0 m 435 1038 l 231 1215 l 476 1294 l 621 1038 l 435 1038 z "},"É":{"ha":926,"x_min":86,"x_max":875,"o":"m 86 0 l 86 972 l 868 972 l 868 743 l 353 743 l 353 596 l 819 596 l 819 383 l 353 383 l 353 229 l 875 229 l 875 0 l 86 0 m 350 1038 l 494 1294 l 740 1215 l 536 1038 l 350 1038 z "},"Ê":{"ha":926,"x_min":86,"x_max":875,"o":"m 86 0 l 86 972 l 868 972 l 868 743 l 353 743 l 353 596 l 819 596 l 819 383 l 353 383 l 353 229 l 875 229 l 875 0 l 86 0 m 194 1038 l 372 1267 l 586 1267 l 764 1038 l 594 1038 l 478 1122 l 361 1038 l 194 1038 z "},"Ë":{"ha":926,"x_min":86,"x_max":875,"o":"m 86 0 l 86 972 l 868 972 l 868 743 l 353 743 l 353 596 l 819 596 l 819 383 l 353 383 l 353 229 l 875 229 l 875 0 l 86 0 m 213 1038 l 213 1236 l 442 1236 l 442 1038 l 213 1038 m 517 1038 l 517 1236 l 746 1236 l 746 1038 l 517 1038 z "},"Ì":{"ha":454,"x_min":-57,"x_max":363,"o":"m 92 0 l 92 972 l 363 972 l 363 0 l 92 0 m 147 1038 l -57 1215 l 189 1294 l 333 1038 l 147 1038 z "},"Í":{"ha":454,"x_min":92,"x_max":511,"o":"m 92 0 l 92 972 l 363 972 l 363 0 l 92 0 m 121 1038 l 265 1294 l 511 1215 l 307 1038 l 121 1038 z "},"Î":{"ha":454,"x_min":-58,"x_max":511,"o":"m 92 0 l 92 972 l 363 972 l 363 0 l 92 0 m -58 1038 l 119 1267 l 333 1267 l 511 1038 l 342 1038 l 225 1122 l 108 1038 l -58 1038 z "},"Ï":{"ha":454,"x_min":-40,"x_max":493,"o":"m 92 0 l 92 972 l 363 972 l 363 0 l 92 0 m -40 1038 l -40 1236 l 189 1236 l 189 1038 l -40 1038 m 264 1038 l 264 1236 l 493 1236 l 493 1038 l 264 1038 z "},"Ð":{"ha":1132,"x_min":43,"x_max":1078,"o":"m 154 0 l 154 383 l 43 383 l 43 596 l 154 596 l 154 972 l 529 972 q 931 839 785 972 q 1078 489 1078 706 q 929 137 1078 274 q 524 0 781 0 l 154 0 m 415 232 l 533 232 q 730 299 658 232 q 801 488 801 367 q 730 673 801 606 q 533 740 658 740 l 415 740 l 415 596 l 581 596 l 581 383 l 415 383 l 415 232 z "},"Ñ":{"ha":1090,"x_min":86,"x_max":1004,"o":"m 86 0 l 86 972 l 338 972 l 738 458 l 738 972 l 1004 972 l 1004 0 l 768 0 l 353 533 l 353 0 l 86 0 m 379 1028 l 253 1063 q 315 1219 275 1169 q 425 1269 356 1269 q 549 1242 472 1269 q 642 1215 625 1215 q 683 1230 669 1215 q 713 1279 697 1244 l 839 1244 q 776 1088 817 1138 q 667 1038 736 1038 q 543 1065 619 1038 q 450 1092 467 1092 q 408 1077 422 1092 q 379 1028 394 1063 z "},"Ò":{"ha":1154,"x_min":53,"x_max":1100,"o":"m 949 128 q 874 54 949 128 q 575 -19 799 -19 q 202 127 351 -19 q 53 486 53 274 q 203 844 53 697 q 578 992 354 992 q 951 845 801 992 q 1100 486 1100 699 q 949 128 1100 275 m 578 224 q 756 300 688 224 q 825 486 825 376 q 754 672 825 594 q 575 749 683 749 q 398 672 467 749 q 329 486 329 596 q 399 301 329 378 q 578 224 469 224 m 488 1038 l 283 1215 l 529 1294 l 674 1038 l 488 1038 z "},"Ó":{"ha":1154,"x_min":53,"x_max":1100,"o":"m 949 128 q 874 54 949 128 q 575 -19 799 -19 q 202 127 351 -19 q 53 486 53 274 q 203 844 53 697 q 578 992 354 992 q 951 845 801 992 q 1100 486 1100 699 q 949 128 1100 275 m 578 224 q 756 300 688 224 q 825 486 825 376 q 754 672 825 594 q 575 749 683 749 q 398 672 467 749 q 329 486 329 596 q 399 301 329 378 q 578 224 469 224 m 482 1038 l 626 1294 l 872 1215 l 668 1038 l 482 1038 z "},"Ô":{"ha":1154,"x_min":53,"x_max":1100,"o":"m 949 128 q 874 54 949 128 q 575 -19 799 -19 q 202 127 351 -19 q 53 486 53 274 q 203 844 53 697 q 578 992 354 992 q 951 845 801 992 q 1100 486 1100 699 q 949 128 1100 275 m 578 224 q 756 300 688 224 q 825 486 825 376 q 754 672 825 594 q 575 749 683 749 q 398 672 467 749 q 329 486 329 596 q 399 301 329 378 q 578 224 469 224 m 293 1035 l 471 1264 l 685 1264 l 863 1035 l 693 1035 l 576 1119 l 460 1035 l 293 1035 z "},"Õ":{"ha":1154,"x_min":53,"x_max":1100,"o":"m 949 128 q 874 54 949 128 q 575 -19 799 -19 q 202 127 351 -19 q 53 486 53 274 q 203 844 53 697 q 578 992 354 992 q 951 845 801 992 q 1100 486 1100 699 q 949 128 1100 275 m 578 224 q 756 300 688 224 q 825 486 825 376 q 754 672 825 594 q 575 749 683 749 q 398 672 467 749 q 329 486 329 596 q 399 301 329 378 q 578 224 469 224 m 411 1028 l 285 1063 q 347 1219 307 1169 q 457 1269 388 1269 q 579 1242 503 1269 q 674 1215 656 1215 q 715 1230 701 1215 q 744 1279 729 1244 l 871 1244 q 808 1088 849 1138 q 699 1038 768 1038 q 576 1065 653 1038 q 482 1092 500 1092 q 440 1077 454 1092 q 411 1028 426 1063 z "},"Ö":{"ha":1154,"x_min":53,"x_max":1100,"o":"m 949 128 q 874 54 949 128 q 575 -19 799 -19 q 202 127 351 -19 q 53 486 53 274 q 203 844 53 697 q 578 992 354 992 q 951 845 801 992 q 1100 486 1100 699 q 949 128 1100 275 m 578 224 q 756 300 688 224 q 825 486 825 376 q 754 672 825 594 q 575 749 683 749 q 398 672 467 749 q 329 486 329 596 q 399 301 329 378 q 578 224 469 224 m 311 1038 l 311 1236 l 540 1236 l 540 1038 l 311 1038 m 615 1038 l 615 1236 l 844 1236 l 844 1038 l 615 1038 z "},"×":{"ha":889,"x_min":74,"x_max":814,"o":"m 224 8 l 74 160 l 293 379 l 74 599 l 224 750 l 443 529 l 664 750 l 814 599 l 594 379 l 814 160 l 664 8 l 443 228 l 224 8 z "},"Ø":{"ha":1154,"x_min":42,"x_max":1111,"o":"m 575 -19 q 300 54 424 -19 l 246 -7 l 42 -7 l 181 149 q 53 486 53 290 q 203 844 53 697 q 578 992 354 992 q 853 918 732 992 l 907 979 l 1111 979 l 974 822 q 1100 486 1100 682 q 949 128 1100 275 q 575 -19 799 -19 m 578 218 q 759 296 689 218 q 829 486 829 374 q 796 621 829 561 l 465 244 q 578 218 518 218 m 358 351 l 688 728 q 575 754 638 754 q 395 676 465 754 q 325 486 325 599 q 358 351 325 411 z "},"Ù":{"ha":1053,"x_min":74,"x_max":979,"o":"m 524 -18 q 192 93 310 -18 q 74 426 74 204 l 74 972 l 347 972 l 347 432 q 395 277 347 329 q 526 225 443 225 q 658 275 610 225 q 706 425 706 325 l 706 972 l 979 972 l 979 433 q 859 94 979 206 q 524 -18 739 -18 m 449 1031 l 244 1208 l 490 1288 l 635 1031 l 449 1031 z "},"Ú":{"ha":1053,"x_min":74,"x_max":979,"o":"m 524 -18 q 192 93 310 -18 q 74 426 74 204 l 74 972 l 347 972 l 347 432 q 395 277 347 329 q 526 225 443 225 q 658 275 610 225 q 706 425 706 325 l 706 972 l 979 972 l 979 433 q 859 94 979 206 q 524 -18 739 -18 m 418 1031 l 563 1288 l 808 1208 l 604 1031 l 418 1031 z "},"Û":{"ha":1053,"x_min":74,"x_max":979,"o":"m 524 -18 q 192 93 310 -18 q 74 426 74 204 l 74 972 l 347 972 l 347 432 q 395 277 347 329 q 526 225 443 225 q 658 275 610 225 q 706 425 706 325 l 706 972 l 979 972 l 979 433 q 859 94 979 206 q 524 -18 739 -18 m 242 1038 l 419 1267 l 633 1267 l 811 1038 l 642 1038 l 525 1122 l 408 1038 l 242 1038 z "},"Ü":{"ha":1053,"x_min":74,"x_max":979,"o":"m 524 -18 q 192 93 310 -18 q 74 426 74 204 l 74 972 l 347 972 l 347 432 q 395 277 347 329 q 526 225 443 225 q 658 275 610 225 q 706 425 706 325 l 706 972 l 979 972 l 979 433 q 859 94 979 206 q 524 -18 739 -18 m 260 1038 l 260 1236 l 489 1236 l 489 1038 l 260 1038 m 564 1038 l 564 1236 l 793 1236 l 793 1038 l 564 1038 z "},"Ý":{"ha":1004,"x_min":-3,"x_max":1007,"o":"m 367 0 l 367 364 l -3 972 l 304 972 l 504 618 l 706 972 l 1007 972 l 638 368 l 638 0 l 367 0 m 390 1035 l 535 1292 l 781 1213 l 576 1035 l 390 1035 z "},"Þ":{"ha":947,"x_min":86,"x_max":907,"o":"m 86 0 l 86 972 l 356 972 l 356 833 l 503 833 q 798 744 689 833 q 907 493 907 654 q 792 235 907 325 q 489 146 676 146 l 356 146 l 356 0 l 86 0 m 356 361 l 483 361 q 597 396 556 361 q 638 490 638 431 q 597 584 638 551 q 482 617 556 617 l 356 617 l 356 361 z "},"ß":{"ha":882,"x_min":71,"x_max":844,"o":"m 469 -6 q 426 -4 442 -6 l 426 185 q 542 219 501 189 q 583 300 583 249 q 541 377 583 349 q 426 413 499 406 l 426 553 q 540 704 540 610 q 513 778 540 750 q 444 806 486 806 q 364 770 394 806 q 333 671 333 735 l 333 0 l 71 0 l 71 665 q 169 928 71 831 q 449 1026 268 1026 q 701 943 607 1026 q 796 733 796 860 q 651 506 796 579 q 789 420 733 479 q 844 267 844 361 q 741 67 844 140 q 469 -6 638 -6 z "},"à":{"ha":832,"x_min":33,"x_max":768,"o":"m 286 -17 q 104 45 175 -17 q 33 218 33 107 q 113 393 33 332 q 328 454 192 454 q 508 425 426 454 l 508 438 q 358 560 508 560 q 151 518 257 560 l 97 704 q 401 763 239 763 q 688 671 596 763 q 768 432 768 592 l 768 0 l 507 0 l 507 78 q 286 -17 422 -17 m 381 149 q 475 183 439 149 q 511 272 511 217 l 511 307 q 408 326 465 326 q 319 301 351 326 q 288 231 288 275 q 313 171 288 193 q 381 149 339 149 m 350 818 l 146 996 l 392 1075 l 536 818 l 350 818 z "},"á":{"ha":832,"x_min":33,"x_max":768,"o":"m 286 -17 q 104 45 175 -17 q 33 218 33 107 q 113 393 33 332 q 328 454 192 454 q 508 425 426 454 l 508 438 q 358 560 508 560 q 151 518 257 560 l 97 704 q 401 763 239 763 q 688 671 596 763 q 768 432 768 592 l 768 0 l 507 0 l 507 78 q 286 -17 422 -17 m 381 149 q 475 183 439 149 q 511 272 511 217 l 511 307 q 408 326 465 326 q 319 301 351 326 q 288 231 288 275 q 313 171 288 193 q 381 149 339 149 m 300 818 l 444 1075 l 690 996 l 486 818 l 300 818 z "},"â":{"ha":832,"x_min":33,"x_max":768,"o":"m 286 -17 q 104 45 175 -17 q 33 218 33 107 q 113 393 33 332 q 328 454 192 454 q 508 425 426 454 l 508 438 q 358 560 508 560 q 151 518 257 560 l 97 704 q 401 763 239 763 q 688 671 596 763 q 768 432 768 592 l 768 0 l 507 0 l 507 78 q 286 -17 422 -17 m 381 149 q 475 183 439 149 q 511 272 511 217 l 511 307 q 408 326 465 326 q 319 301 351 326 q 288 231 288 275 q 313 171 288 193 q 381 149 339 149 m 128 815 l 306 1044 l 519 1044 l 697 815 l 528 815 l 411 900 l 294 815 l 128 815 z "},"ã":{"ha":832,"x_min":33,"x_max":768,"o":"m 286 -17 q 104 45 175 -17 q 33 218 33 107 q 113 393 33 332 q 328 454 192 454 q 508 425 426 454 l 508 438 q 358 560 508 560 q 151 518 257 560 l 97 704 q 401 763 239 763 q 688 671 596 763 q 768 432 768 592 l 768 0 l 507 0 l 507 78 q 286 -17 422 -17 m 381 149 q 475 183 439 149 q 511 272 511 217 l 511 307 q 408 326 465 326 q 319 301 351 326 q 288 231 288 275 q 313 171 288 193 q 381 149 339 149 m 249 806 l 122 840 q 185 997 144 947 q 294 1047 225 1047 q 418 1020 342 1047 q 511 993 494 993 q 553 1008 539 993 q 582 1057 567 1022 l 708 1022 q 646 865 686 915 q 536 815 606 815 q 413 842 489 815 q 319 869 336 869 q 278 855 292 869 q 249 806 264 840 z "},"ä":{"ha":832,"x_min":33,"x_max":768,"o":"m 286 -17 q 104 45 175 -17 q 33 218 33 107 q 113 393 33 332 q 328 454 192 454 q 508 425 426 454 l 508 438 q 358 560 508 560 q 151 518 257 560 l 97 704 q 401 763 239 763 q 688 671 596 763 q 768 432 768 592 l 768 0 l 507 0 l 507 78 q 286 -17 422 -17 m 381 149 q 475 183 439 149 q 511 272 511 217 l 511 307 q 408 326 465 326 q 319 301 351 326 q 288 231 288 275 q 313 171 288 193 q 381 149 339 149 m 146 818 l 146 1017 l 375 1017 l 375 818 l 146 818 m 450 818 l 450 1017 l 679 1017 l 679 818 l 450 818 z "},"å":{"ha":832,"x_min":33,"x_max":768,"o":"m 286 -17 q 104 45 175 -17 q 33 218 33 107 q 113 393 33 332 q 328 454 192 454 q 508 425 426 454 l 508 438 q 358 560 508 560 q 151 518 257 560 l 97 704 q 401 763 239 763 q 688 671 596 763 q 768 432 768 592 l 768 0 l 507 0 l 507 78 q 286 -17 422 -17 m 381 149 q 475 183 439 149 q 511 272 511 217 l 511 307 q 408 326 465 326 q 319 301 351 326 q 288 231 288 275 q 313 171 288 193 q 381 149 339 149 m 542 874 q 514 847 542 874 q 413 821 486 821 q 283 874 339 821 q 228 1000 228 928 q 283 1123 228 1071 q 413 1175 339 1175 q 542 1123 486 1175 q 597 997 597 1071 q 542 874 597 926 m 347 933 q 360 919 347 933 q 413 906 374 906 q 478 933 451 906 q 506 1000 506 961 q 478 1063 506 1036 q 413 1090 451 1090 q 347 1063 374 1090 q 319 997 319 1036 q 347 933 319 960 z "},"æ":{"ha":1306,"x_min":33,"x_max":1264,"o":"m 313 -17 q 112 44 190 -17 q 33 218 33 106 q 113 393 33 332 q 328 454 192 454 q 508 425 426 454 l 508 438 q 358 560 508 560 q 151 518 257 560 l 97 704 q 401 763 239 763 q 656 678 571 763 q 890 768 750 768 q 1167 651 1071 768 q 1264 357 1264 533 q 1261 303 1264 339 l 758 303 q 921 179 792 179 q 1088 256 1010 179 l 1233 135 q 908 -18 1113 -18 q 614 94 726 -18 q 313 -17 468 -17 m 385 151 q 536 213 460 151 q 510 307 515 261 q 408 326 464 326 q 319 301 351 326 q 288 231 288 275 q 315 173 288 194 q 385 151 342 151 m 756 438 l 1017 438 q 974 537 1010 500 q 885 574 939 574 q 799 537 833 574 q 756 438 765 500 z "},"ç":{"ha":790,"x_min":40,"x_max":768,"o":"m 406 -240 l 196 -151 l 308 1 q 114 142 188 40 q 40 375 40 244 q 154 652 40 538 q 443 767 268 767 q 764 599 658 767 l 585 465 q 444 544 528 544 q 340 495 382 544 q 297 375 297 446 q 339 253 297 301 q 447 204 381 204 q 592 282 525 204 l 768 154 q 485 -15 664 1 l 406 -240 z "},"è":{"ha":840,"x_min":40,"x_max":799,"o":"m 443 -18 q 153 90 265 -18 q 40 375 40 199 q 147 655 40 542 q 419 768 254 768 q 701 651 604 768 q 799 357 799 535 q 797 303 799 321 l 294 303 q 457 179 326 179 q 624 256 546 179 l 769 135 q 443 -18 649 -18 m 290 438 l 551 438 q 510 537 544 500 q 421 574 475 574 q 335 537 369 574 q 290 438 301 500 m 339 818 l 135 996 l 381 1075 l 525 818 l 339 818 z "},"é":{"ha":840,"x_min":40,"x_max":799,"o":"m 443 -18 q 153 90 265 -18 q 40 375 40 199 q 147 655 40 542 q 419 768 254 768 q 701 651 604 768 q 799 357 799 535 q 797 303 799 321 l 294 303 q 457 179 326 179 q 624 256 546 179 l 769 135 q 443 -18 649 -18 m 290 438 l 551 438 q 510 537 544 500 q 421 574 475 574 q 335 537 369 574 q 290 438 301 500 m 317 818 l 461 1075 l 707 996 l 503 818 l 317 818 z "},"ê":{"ha":840,"x_min":40,"x_max":799,"o":"m 443 -18 q 153 90 265 -18 q 40 375 40 199 q 147 655 40 542 q 419 768 254 768 q 701 651 604 768 q 799 357 799 535 q 797 303 799 321 l 294 303 q 457 179 326 179 q 624 256 546 179 l 769 135 q 443 -18 649 -18 m 290 438 l 551 438 q 510 537 544 500 q 421 574 475 574 q 335 537 369 574 q 290 438 301 500 m 136 813 l 314 1042 l 528 1042 l 706 813 l 536 813 l 419 897 l 303 813 l 136 813 z "},"ë":{"ha":840,"x_min":40,"x_max":799,"o":"m 443 -18 q 153 90 265 -18 q 40 375 40 199 q 147 655 40 542 q 419 768 254 768 q 701 651 604 768 q 799 357 799 535 q 797 303 799 321 l 294 303 q 457 179 326 179 q 624 256 546 179 l 769 135 q 443 -18 649 -18 m 290 438 l 551 438 q 510 537 544 500 q 421 574 475 574 q 335 537 369 574 q 290 438 301 500 m 154 815 l 154 1014 l 383 1014 l 383 815 l 154 815 m 458 815 l 458 1014 l 688 1014 l 688 815 l 458 815 z "},"ì":{"ha":417,"x_min":-72,"x_max":340,"o":"m 76 0 l 76 751 l 340 751 l 340 0 l 76 0 m 132 815 l -72 993 l 174 1072 l 318 815 l 132 815 z "},"í":{"ha":417,"x_min":76,"x_max":492,"o":"m 76 0 l 76 751 l 340 751 l 340 0 l 76 0 m 101 815 l 246 1072 l 492 993 l 288 815 l 101 815 z "},"î":{"ha":417,"x_min":-75,"x_max":494,"o":"m 76 0 l 76 751 l 340 751 l 340 0 l 76 0 m -75 815 l 103 1044 l 317 1044 l 494 815 l 325 815 l 208 900 l 92 815 l -75 815 z "},"ï":{"ha":417,"x_min":-57,"x_max":476,"o":"m 76 0 l 76 751 l 340 751 l 340 0 l 76 0 m -57 815 l -57 1014 l 172 1014 l 172 815 l -57 815 m 247 815 l 247 1014 l 476 1014 l 476 815 l 247 815 z "},"ð":{"ha":911,"x_min":44,"x_max":854,"o":"m 446 -18 q 158 87 271 -18 q 44 349 44 192 q 135 573 44 483 q 375 663 226 663 q 525 625 464 663 l 414 774 l 254 713 l 164 836 l 326 892 l 238 1014 l 518 1014 l 547 972 l 685 1024 l 774 900 l 631 851 l 719 726 q 824 539 794 618 q 854 360 854 460 q 742 90 854 199 q 446 -18 629 -18 m 451 203 q 560 244 519 203 q 600 347 600 285 q 558 447 600 406 q 449 489 515 489 q 340 449 381 489 q 299 346 299 408 q 342 244 299 286 q 451 203 385 203 z "},"ñ":{"ha":881,"x_min":71,"x_max":815,"o":"m 71 0 l 71 751 l 335 751 l 335 646 q 560 768 429 768 q 747 694 679 768 q 815 492 815 619 l 815 0 l 551 0 l 551 407 q 523 500 551 467 q 446 533 494 533 q 365 500 396 533 q 335 407 335 467 l 335 0 l 71 0 m 281 806 l 154 840 q 217 997 176 947 q 326 1047 257 1047 q 449 1020 372 1047 q 543 993 525 993 q 585 1008 571 993 q 614 1057 599 1022 l 740 1022 q 678 865 718 915 q 568 815 638 815 q 446 842 522 815 q 351 869 369 869 q 310 855 324 869 q 281 806 296 840 z "},"ò":{"ha":911,"x_min":40,"x_max":871,"o":"m 454 -18 q 158 97 276 -18 q 40 375 40 211 q 159 653 40 538 q 457 768 278 768 q 753 653 635 768 q 871 375 871 539 q 752 97 871 213 q 454 -18 633 -18 m 457 206 q 571 254 528 206 q 614 375 614 303 q 568 494 614 444 q 454 544 522 544 q 340 496 383 544 q 297 375 297 447 q 343 256 297 306 q 457 206 389 206 m 371 818 l 167 996 l 413 1075 l 557 818 l 371 818 z "},"ó":{"ha":911,"x_min":40,"x_max":871,"o":"m 454 -18 q 158 97 276 -18 q 40 375 40 211 q 159 653 40 538 q 457 768 278 768 q 753 653 635 768 q 871 375 871 539 q 752 97 871 213 q 454 -18 633 -18 m 457 206 q 571 254 528 206 q 614 375 614 303 q 568 494 614 444 q 454 544 522 544 q 340 496 383 544 q 297 375 297 447 q 343 256 297 306 q 457 206 389 206 m 354 818 l 499 1075 l 744 996 l 540 818 l 354 818 z "},"ô":{"ha":911,"x_min":40,"x_max":871,"o":"m 454 -18 q 158 97 276 -18 q 40 375 40 211 q 159 653 40 538 q 457 768 278 768 q 753 653 635 768 q 871 375 871 539 q 752 97 871 213 q 454 -18 633 -18 m 457 206 q 571 254 528 206 q 614 375 614 303 q 568 494 614 444 q 454 544 522 544 q 340 496 383 544 q 297 375 297 447 q 343 256 297 306 q 457 206 389 206 m 171 813 l 349 1042 l 563 1042 l 740 813 l 571 813 l 454 897 l 338 813 l 171 813 z "},"õ":{"ha":911,"x_min":40,"x_max":871,"o":"m 454 -18 q 158 97 276 -18 q 40 375 40 211 q 159 653 40 538 q 457 768 278 768 q 753 653 635 768 q 871 375 871 539 q 752 97 871 213 q 454 -18 633 -18 m 457 206 q 571 254 528 206 q 614 375 614 303 q 568 494 614 444 q 454 544 522 544 q 340 496 383 544 q 297 375 297 447 q 343 256 297 306 q 457 206 389 206 m 289 806 l 163 840 q 225 997 185 947 q 335 1047 265 1047 q 457 1020 381 1047 q 551 993 533 993 q 593 1008 579 993 q 622 1057 607 1022 l 749 1022 q 686 865 726 915 q 576 815 646 815 q 454 842 531 815 q 360 869 378 869 q 318 855 332 869 q 289 806 304 840 z "},"ö":{"ha":911,"x_min":40,"x_max":871,"o":"m 454 -18 q 158 97 276 -18 q 40 375 40 211 q 159 653 40 538 q 457 768 278 768 q 753 653 635 768 q 871 375 871 539 q 752 97 871 213 q 454 -18 633 -18 m 457 206 q 571 254 528 206 q 614 375 614 303 q 568 494 614 444 q 454 544 522 544 q 340 496 383 544 q 297 375 297 447 q 343 256 297 306 q 457 206 389 206 m 189 815 l 189 1014 l 418 1014 l 418 815 l 189 815 m 493 815 l 493 1014 l 722 1014 l 722 815 l 493 815 z "},"÷":{"ha":889,"x_min":103,"x_max":785,"o":"m 317 47 l 317 290 l 564 290 l 564 47 l 317 47 m 103 376 l 103 608 l 785 608 l 785 376 l 103 376 m 317 694 l 317 938 l 564 938 l 564 694 l 317 694 z "},"ø":{"ha":911,"x_min":19,"x_max":892,"o":"m 454 -18 q 243 35 340 -18 l 204 -7 l 19 -7 l 135 121 q 40 375 40 228 q 159 653 40 538 q 457 768 278 768 q 667 715 572 768 l 707 758 l 892 758 q 776 631 804 663 q 871 375 871 524 q 752 97 871 213 q 454 -18 633 -18 m 457 194 q 578 247 532 194 q 625 375 625 299 q 611 447 625 410 l 396 206 q 457 194 425 194 m 300 303 l 517 543 q 454 556 489 556 q 333 503 379 556 q 286 375 286 451 q 300 303 286 340 z "},"ù":{"ha":881,"x_min":65,"x_max":810,"o":"m 321 -17 q 133 57 201 -17 q 65 260 65 131 l 65 751 l 329 751 l 329 344 q 358 251 329 285 q 436 218 388 218 q 515 251 485 218 q 546 344 546 285 l 546 751 l 810 751 l 810 0 l 546 0 l 546 103 q 321 -17 453 -17 m 378 815 l 174 993 l 419 1072 l 564 815 l 378 815 z "},"ú":{"ha":881,"x_min":65,"x_max":810,"o":"m 321 -17 q 133 57 201 -17 q 65 260 65 131 l 65 751 l 329 751 l 329 344 q 358 251 329 285 q 436 218 388 218 q 515 251 485 218 q 546 344 546 285 l 546 751 l 810 751 l 810 0 l 546 0 l 546 103 q 321 -17 453 -17 m 317 815 l 461 1072 l 707 993 l 503 815 l 317 815 z "},"û":{"ha":881,"x_min":65,"x_max":810,"o":"m 321 -17 q 133 57 201 -17 q 65 260 65 131 l 65 751 l 329 751 l 329 344 q 358 251 329 285 q 436 218 388 218 q 515 251 485 218 q 546 344 546 285 l 546 751 l 810 751 l 810 0 l 546 0 l 546 103 q 321 -17 453 -17 m 156 815 l 333 1044 l 547 1044 l 725 815 l 556 815 l 439 900 l 322 815 l 156 815 z "},"ü":{"ha":881,"x_min":65,"x_max":810,"o":"m 321 -17 q 133 57 201 -17 q 65 260 65 131 l 65 751 l 329 751 l 329 344 q 358 251 329 285 q 436 218 388 218 q 515 251 485 218 q 546 344 546 285 l 546 751 l 810 751 l 810 0 l 546 0 l 546 103 q 321 -17 453 -17 m 174 815 l 174 1014 l 403 1014 l 403 815 l 174 815 m 478 815 l 478 1014 l 707 1014 l 707 815 l 478 815 z "},"ý":{"ha":869,"x_min":15,"x_max":854,"o":"m 293 -226 q 51 -161 168 -226 l 133 24 q 249 -17 200 -17 q 310 14 288 -17 l 15 751 l 292 751 l 442 299 l 583 751 l 854 751 l 579 18 q 467 -171 529 -115 q 293 -226 404 -226 m 314 815 l 458 1072 l 704 993 l 500 815 l 314 815 z "},"þ":{"ha":939,"x_min":71,"x_max":896,"o":"m 71 -222 l 71 1014 l 335 1014 l 335 651 q 563 768 431 768 q 799 660 701 768 q 896 376 896 553 q 799 91 896 199 q 564 -17 703 -17 q 335 92 428 -17 l 335 -222 l 71 -222 m 482 204 q 592 253 547 204 q 636 378 636 301 q 592 499 636 451 q 482 547 547 547 q 374 499 418 547 q 329 375 329 450 q 374 253 329 301 q 482 204 418 204 z "},"ÿ":{"ha":869,"x_min":15,"x_max":854,"o":"m 293 -226 q 51 -161 168 -226 l 133 24 q 249 -17 200 -17 q 310 14 288 -17 l 15 751 l 292 751 l 442 299 l 583 751 l 854 751 l 579 18 q 467 -171 529 -115 q 293 -226 404 -226 m 167 815 l 167 1014 l 396 1014 l 396 815 l 167 815 m 471 815 l 471 1014 l 700 1014 l 700 815 l 471 815 z "},"ı":{"ha":417,"x_min":76,"x_max":340,"o":"m 76 0 l 76 751 l 340 751 l 340 0 l 76 0 z "},"Ł":{"ha":915,"x_min":43,"x_max":886,"o":"m 149 0 l 149 340 l 43 310 l 43 550 l 149 581 l 149 972 l 417 972 l 417 661 l 663 733 l 663 492 l 417 419 l 417 236 l 886 236 l 886 0 l 149 0 z "},"ł":{"ha":557,"x_min":33,"x_max":524,"o":"m 147 0 l 147 367 l 33 333 l 33 569 l 147 603 l 147 1014 l 410 1014 l 410 678 l 524 711 l 524 474 l 410 440 l 410 0 l 147 0 z "},"Œ":{"ha":1497,"x_min":53,"x_max":1444,"o":"m 601 0 q 199 133 346 0 q 53 483 53 267 q 201 836 53 700 q 607 972 350 972 l 1438 972 l 1438 743 l 953 743 l 953 596 l 1389 596 l 1389 383 l 953 383 l 953 229 l 1444 229 l 1444 0 l 601 0 m 594 235 l 686 235 l 686 738 l 594 738 q 401 670 474 738 q 329 485 329 603 q 402 302 329 369 q 594 235 475 235 z "},"œ":{"ha":1407,"x_min":40,"x_max":1365,"o":"m 444 -18 q 158 97 275 -18 q 40 375 40 211 q 159 653 40 538 q 450 768 278 768 q 728 656 619 768 q 990 768 829 768 q 1269 651 1172 768 q 1365 357 1365 533 q 1363 303 1365 339 l 861 303 q 1022 179 893 179 q 1190 256 1113 179 l 1336 135 q 1014 -18 1214 -18 q 725 94 833 -18 q 444 -18 615 -18 m 453 206 q 565 254 522 206 q 607 375 607 303 q 563 494 607 444 q 450 544 518 544 q 340 495 382 544 q 297 375 297 446 q 342 256 297 306 q 453 206 386 206 m 857 438 l 1118 438 q 1076 537 1111 500 q 988 574 1042 574 q 902 537 936 574 q 857 438 868 500 z "},"Š":{"ha":906,"x_min":13,"x_max":861,"o":"m 468 -17 q 13 144 193 -17 l 163 324 q 478 207 308 207 q 589 276 589 207 q 556 327 589 307 q 425 369 522 347 q 278 410 336 390 q 166 465 221 431 q 85 551 111 499 q 58 678 58 604 q 160 902 58 815 q 435 989 263 989 q 835 860 674 989 l 700 669 q 428 765 564 765 q 356 747 381 765 q 331 700 331 729 q 365 647 331 667 q 499 606 399 628 q 772 498 682 565 q 861 300 861 431 q 754 68 861 153 q 468 -17 647 -17 m 338 1038 l 160 1267 l 329 1267 l 446 1182 l 563 1267 l 729 1267 l 551 1038 l 338 1038 z "},"š":{"ha":714,"x_min":14,"x_max":676,"o":"m 369 -17 q 14 94 168 -17 l 113 254 q 371 168 243 168 q 438 211 438 168 q 410 244 438 232 q 317 275 383 257 q 117 362 185 311 q 50 518 50 413 q 134 701 50 635 q 351 767 218 767 q 661 679 525 767 l 571 513 q 349 582 446 582 q 288 543 288 582 q 314 510 288 524 q 410 476 340 497 q 515 441 474 458 q 597 396 557 424 q 657 328 638 368 q 676 235 676 289 q 593 49 676 114 q 369 -17 510 -17 m 253 815 l 75 1044 l 244 1044 l 361 960 l 478 1044 l 644 1044 l 467 815 l 253 815 z "},"Ÿ":{"ha":1004,"x_min":-3,"x_max":1007,"o":"m 367 0 l 367 364 l -3 972 l 304 972 l 504 618 l 706 972 l 1007 972 l 638 368 l 638 0 l 367 0 m 236 1038 l 236 1236 l 465 1236 l 465 1038 l 236 1038 m 540 1038 l 540 1236 l 769 1236 l 769 1038 l 540 1038 z "},"Ž":{"ha":969,"x_min":56,"x_max":915,"o":"m 56 0 l 56 196 l 543 744 l 72 744 l 72 972 l 915 972 l 915 776 l 428 228 l 915 228 l 915 0 l 56 0 m 385 1038 l 207 1267 l 376 1267 l 493 1182 l 610 1267 l 776 1267 l 599 1038 l 385 1038 z "},"ž":{"ha":782,"x_min":44,"x_max":742,"o":"m 44 0 l 44 174 l 392 542 l 57 542 l 57 751 l 742 751 l 742 578 l 393 210 l 742 210 l 742 0 l 44 0 m 288 815 l 110 1044 l 279 1044 l 396 960 l 513 1044 l 679 1044 l 501 815 l 288 815 z "},"ƒ":{"ha":768,"x_min":35,"x_max":736,"o":"m 154 -14 q 35 0 96 -14 l 35 192 q 100 183 75 183 q 165 203 144 183 q 196 274 186 224 l 228 457 l 143 457 l 143 657 l 263 657 l 281 747 q 376 928 303 869 q 583 986 450 986 q 736 968 672 986 l 736 774 q 643 786 686 786 q 569 766 594 786 q 535 699 543 746 l 528 657 l 686 657 l 686 457 l 492 457 l 453 239 q 360 44 429 101 q 154 -14 290 -14 z "},"ˆ":{"ha":694,"x_min":63,"x_max":632,"o":"m 63 815 l 240 1044 l 454 1044 l 632 815 l 463 815 l 346 900 l 229 815 l 63 815 z "},"ˇ":{"ha":694,"x_min":63,"x_max":632,"o":"m 240 815 l 63 1044 l 232 1044 l 349 960 l 465 1044 l 632 1044 l 454 815 l 240 815 z "},"˘":{"ha":694,"x_min":74,"x_max":621,"o":"m 538 874 q 501 843 538 874 q 347 813 464 813 q 157 874 231 813 q 74 1044 83 935 l 228 1044 q 347 964 256 964 q 467 1044 439 964 l 621 1044 q 538 874 611 935 z "},"˙":{"ha":694,"x_min":229,"x_max":465,"o":"m 229 815 l 229 1014 l 465 1014 l 465 815 l 229 815 z "},"˚":{"ha":694,"x_min":163,"x_max":532,"o":"m 476 874 q 449 847 476 874 q 347 821 421 821 q 218 874 274 821 q 163 1000 163 928 q 218 1123 163 1071 q 347 1175 274 1175 q 476 1123 421 1175 q 532 997 532 1071 q 476 874 532 926 m 281 933 q 295 919 281 933 q 347 906 308 906 q 413 933 386 906 q 440 1000 440 961 q 413 1063 440 1036 q 347 1090 386 1090 q 281 1063 308 1090 q 254 997 254 1036 q 281 933 254 960 z "},"˛":{"ha":694,"x_min":219,"x_max":529,"o":"m 453 -232 q 279 -192 339 -232 q 219 -81 219 -153 q 246 14 219 -33 l 415 14 q 408 -33 408 -11 q 529 -114 408 -112 l 529 -228 q 453 -232 488 -232 z "},"˜":{"ha":694,"x_min":54,"x_max":640,"o":"m 181 806 l 54 840 q 117 997 76 947 q 226 1047 157 1047 q 349 1020 272 1047 q 443 993 425 993 q 485 1008 471 993 q 514 1057 499 1022 l 640 1022 q 578 865 618 915 q 468 815 538 815 q 346 842 422 815 q 251 869 269 869 q 210 855 224 869 q 181 806 196 840 z "},"˝":{"ha":694,"x_min":42,"x_max":668,"o":"m 42 817 l 179 1072 l 396 997 l 438 1072 l 668 993 l 469 817 l 299 817 l 381 967 l 214 817 l 42 817 z "},"Ω":{"ha":1081,"x_min":71,"x_max":1008,"o":"m 71 0 l 71 201 l 311 201 l 311 228 q 133 355 194 258 q 71 576 71 451 q 204 883 71 775 q 542 992 338 992 q 874 881 740 992 q 1008 578 1008 771 q 945 353 1008 456 q 768 228 882 251 l 768 201 l 1007 201 l 1007 0 l 588 0 l 588 336 q 719 416 674 349 q 764 568 764 483 q 703 724 764 661 q 540 788 643 788 q 378 722 438 788 q 318 561 318 656 q 362 413 318 478 q 490 336 406 349 l 490 0 l 71 0 z "},"π":{"ha":694,"x_min":0,"x_max":694,"o":"m 0 0 l 0 972 l 694 972 l 694 0 l 0 0 m 113 68 l 583 68 l 347 422 l 113 68 m 68 133 l 306 486 l 68 839 l 68 133 m 625 133 l 625 839 l 388 486 l 625 133 m 347 549 l 583 903 l 113 903 l 347 549 z "},"Ё":{"ha":926,"x_min":86,"x_max":875,"o":"m 86 0 l 86 972 l 868 972 l 868 743 l 353 743 l 353 596 l 819 596 l 819 383 l 353 383 l 353 229 l 875 229 l 875 0 l 86 0 m 221 1038 l 221 1236 l 450 1236 l 450 1038 l 221 1038 m 525 1038 l 525 1236 l 754 1236 l 754 1038 l 525 1038 z "},"Ђ":{"ha":1194,"x_min":32,"x_max":1125,"o":"m 786 -93 q 629 -75 699 -93 l 658 158 q 713 156 675 156 q 844 272 844 156 q 809 358 844 326 q 708 390 774 390 q 551 338 610 390 l 551 0 l 282 0 l 282 736 l 32 736 l 32 972 l 885 972 l 885 736 l 551 736 l 551 576 q 786 639 658 639 q 1033 549 940 639 q 1125 278 1125 458 q 1033 1 1125 94 q 786 -93 940 -93 z "},"Ѓ":{"ha":814,"x_min":86,"x_max":786,"o":"m 86 0 l 86 972 l 786 972 l 786 736 l 356 736 l 356 0 l 86 0 m 288 1038 l 432 1294 l 678 1215 l 474 1038 l 288 1038 z "},"Є":{"ha":1014,"x_min":53,"x_max":974,"o":"m 554 -19 q 198 124 343 -19 q 53 486 53 268 q 199 846 53 700 q 565 992 346 992 q 956 810 806 992 l 774 654 q 563 751 688 751 q 425 706 483 751 q 340 586 367 660 l 656 586 l 656 396 l 336 396 q 419 268 360 317 q 563 219 479 219 q 778 325 683 219 l 974 186 q 554 -19 818 -19 z "},"Ѕ":{"ha":906,"x_min":13,"x_max":861,"o":"m 468 -17 q 13 144 193 -17 l 163 324 q 478 207 308 207 q 589 276 589 207 q 556 327 589 307 q 425 369 522 347 q 278 410 336 390 q 166 465 221 431 q 85 551 111 499 q 58 678 58 604 q 160 902 58 815 q 435 989 263 989 q 835 860 674 989 l 700 669 q 428 765 564 765 q 356 747 381 765 q 331 700 331 729 q 365 647 331 667 q 499 606 399 628 q 772 498 682 565 q 861 300 861 431 q 754 68 861 153 q 468 -17 647 -17 z "},"І":{"ha":454,"x_min":92,"x_max":363,"o":"m 92 0 l 92 972 l 363 972 l 363 0 l 92 0 z "},"Ї":{"ha":454,"x_min":-39,"x_max":494,"o":"m 92 0 l 92 972 l 363 972 l 363 0 l 92 0 m -39 1038 l -39 1236 l 190 1236 l 190 1038 l -39 1038 m 265 1038 l 265 1236 l 494 1236 l 494 1038 l 265 1038 z "},"Ј":{"ha":783,"x_min":6,"x_max":710,"o":"m 347 -17 q 6 147 125 -17 l 179 311 q 331 221 254 221 q 413 256 383 221 q 442 357 442 290 l 442 972 l 710 972 l 710 356 q 614 82 710 178 q 347 -17 515 -17 z "},"Љ":{"ha":1536,"x_min":-19,"x_max":1508,"o":"m 142 -14 q -19 8 47 -14 l -1 215 q 61 210 24 210 q 107 218 89 210 q 147 262 125 226 q 181 362 168 297 q 201 547 193 426 q 210 838 210 667 l 210 972 l 957 972 l 957 667 l 1104 667 q 1397 581 1286 667 q 1508 336 1508 496 q 1403 90 1508 179 q 1118 0 1297 0 l 688 0 l 688 736 l 461 736 l 461 699 q 446 397 461 525 q 403 191 431 269 q 335 66 376 113 q 248 3 293 19 q 142 -14 203 -14 m 957 226 l 1097 226 q 1202 256 1165 226 q 1239 343 1239 286 q 1201 425 1239 394 q 1099 456 1164 456 l 957 456 l 957 226 z "},"Њ":{"ha":1550,"x_min":86,"x_max":1522,"o":"m 86 0 l 86 972 l 356 972 l 356 631 l 701 631 l 701 972 l 971 972 l 971 631 l 1132 631 q 1415 551 1308 631 q 1522 318 1522 471 q 1421 84 1522 168 q 1146 0 1319 0 l 701 0 l 701 392 l 356 392 l 356 0 l 86 0 m 971 226 l 1125 226 q 1219 253 1186 226 q 1253 329 1253 279 q 1219 401 1253 375 q 1126 428 1185 428 l 971 428 l 971 226 z "},"Ћ":{"ha":1194,"x_min":32,"x_max":1125,"o":"m 282 0 l 282 736 l 32 736 l 32 972 l 885 972 l 885 736 l 551 736 l 551 576 q 786 639 658 639 q 1031 555 938 639 q 1125 321 1125 471 l 1125 0 l 856 0 l 856 208 q 722 390 856 390 q 551 338 610 390 l 551 0 l 282 0 z "},"Ќ":{"ha":1014,"x_min":86,"x_max":1022,"o":"m 86 0 l 86 972 l 356 972 l 356 578 l 690 972 l 1010 972 l 642 554 l 1022 0 l 699 0 l 454 361 l 356 251 l 356 0 l 86 0 m 408 1038 l 553 1294 l 799 1215 l 594 1038 l 408 1038 z "},"Ў":{"ha":1022,"x_min":0,"x_max":1022,"o":"m 314 -14 q 81 51 190 -14 l 186 246 q 296 213 236 213 q 381 254 344 213 l 0 972 l 300 972 l 521 515 l 729 972 l 1022 972 l 643 231 q 501 42 576 99 q 314 -14 425 -14 m 521 1035 q 356 1090 421 1035 q 276 1247 292 1146 l 424 1274 q 521 1190 454 1190 q 619 1274 589 1190 l 767 1247 q 687 1090 751 1146 q 521 1035 622 1035 z "},"Џ":{"ha":1043,"x_min":86,"x_max":957,"o":"m 389 -194 l 389 0 l 86 0 l 86 972 l 356 972 l 356 236 l 688 236 l 688 972 l 957 972 l 957 0 l 647 0 l 647 -194 l 389 -194 z "},"А":{"ha":1104,"x_min":8,"x_max":1096,"o":"m 8 0 l 422 979 l 682 979 l 1096 0 l 807 0 l 736 174 l 361 174 l 292 0 l 8 0 m 440 383 l 658 383 l 550 660 l 440 383 z "},"Б":{"ha":972,"x_min":86,"x_max":933,"o":"m 86 0 l 86 972 l 868 972 l 868 743 l 356 743 l 356 631 l 543 631 q 826 551 719 631 q 933 318 933 471 q 832 84 933 168 q 557 0 731 0 l 86 0 m 356 226 l 536 226 q 631 253 597 226 q 664 329 664 279 q 630 401 664 375 q 538 428 596 428 l 356 428 l 356 226 z "},"В":{"ha":993,"x_min":86,"x_max":956,"o":"m 86 0 l 86 972 l 585 972 q 850 885 763 972 q 913 725 913 822 q 763 508 913 574 q 906 421 857 478 q 956 268 956 364 q 858 72 956 143 q 588 0 761 0 l 86 0 m 349 217 l 557 217 q 686 308 686 217 q 554 396 686 396 l 349 396 l 349 217 m 349 585 l 518 585 q 646 672 646 585 q 524 756 646 756 l 349 756 l 349 585 z "},"Г":{"ha":814,"x_min":86,"x_max":786,"o":"m 86 0 l 86 972 l 786 972 l 786 736 l 356 736 l 356 0 l 86 0 z "},"Д":{"ha":1069,"x_min":14,"x_max":1049,"o":"m 14 -194 l 14 236 l 100 236 q 176 532 153 378 q 199 947 199 686 l 199 972 l 939 972 l 939 236 l 1049 236 l 1018 -194 l 790 -194 l 790 0 l 274 0 l 256 -194 l 14 -194 m 382 236 l 669 236 l 669 736 l 458 736 l 458 726 q 382 236 458 465 z "},"Е":{"ha":926,"x_min":86,"x_max":875,"o":"m 86 0 l 86 972 l 868 972 l 868 743 l 353 743 l 353 596 l 819 596 l 819 383 l 353 383 l 353 229 l 875 229 l 875 0 l 86 0 z "},"Ж":{"ha":1522,"x_min":-8,"x_max":1531,"o":"m -8 0 l 350 563 l 4 972 l 319 972 l 626 578 l 626 972 l 896 972 l 896 578 l 1203 972 l 1518 972 l 1172 563 l 1531 0 l 1211 0 l 989 367 l 896 258 l 896 0 l 626 0 l 626 258 l 533 367 l 311 0 l -8 0 z "},"З":{"ha":889,"x_min":15,"x_max":847,"o":"m 461 -18 q 207 23 307 -18 q 15 144 107 64 l 156 324 q 429 208 271 208 q 540 235 501 208 q 578 304 578 261 q 422 390 578 390 l 321 390 l 321 590 l 419 590 q 557 679 557 590 q 524 740 557 717 q 435 764 490 764 q 301 737 372 764 q 185 668 231 710 l 51 826 q 458 992 219 992 q 721 917 619 992 q 822 729 822 843 q 676 508 822 576 q 847 283 847 450 q 742 67 847 151 q 461 -18 638 -18 z "},"И":{"ha":1067,"x_min":86,"x_max":981,"o":"m 86 0 l 86 972 l 353 972 l 353 425 l 729 972 l 981 972 l 981 0 l 714 0 l 714 547 l 338 0 l 86 0 z "},"Й":{"ha":1067,"x_min":86,"x_max":981,"o":"m 86 0 l 86 972 l 353 972 l 353 425 l 729 972 l 981 972 l 981 0 l 714 0 l 714 547 l 338 0 l 86 0 m 542 1035 q 377 1090 442 1035 q 297 1247 313 1146 l 444 1274 q 542 1190 475 1190 q 640 1274 610 1190 l 788 1247 q 708 1090 772 1146 q 542 1035 643 1035 z "},"К":{"ha":1014,"x_min":86,"x_max":1022,"o":"m 86 0 l 86 972 l 356 972 l 356 578 l 690 972 l 1010 972 l 642 554 l 1022 0 l 699 0 l 454 361 l 356 251 l 356 0 l 86 0 z "},"Л":{"ha":1043,"x_min":-19,"x_max":957,"o":"m 142 -14 q -19 8 47 -14 l -1 215 q 61 210 24 210 q 107 218 89 210 q 147 262 125 226 q 181 362 168 297 q 201 547 193 426 q 210 838 210 667 l 210 972 l 957 972 l 957 0 l 688 0 l 688 736 l 461 736 l 461 699 q 446 397 461 525 q 403 191 431 269 q 335 66 376 113 q 248 3 293 19 q 142 -14 203 -14 z "},"М":{"ha":1206,"x_min":86,"x_max":1119,"o":"m 86 0 l 86 972 l 371 972 l 603 596 l 835 972 l 1119 972 l 1119 0 l 851 0 l 851 558 l 603 178 l 597 178 l 350 556 l 350 0 l 86 0 z "},"Н":{"ha":1057,"x_min":86,"x_max":971,"o":"m 86 0 l 86 972 l 356 972 l 356 608 l 701 608 l 701 972 l 971 972 l 971 0 l 701 0 l 701 369 l 356 369 l 356 0 l 86 0 z "},"О":{"ha":1154,"x_min":53,"x_max":1100,"o":"m 949 128 q 874 54 949 128 q 575 -19 799 -19 q 202 127 351 -19 q 53 486 53 274 q 203 844 53 697 q 578 992 354 992 q 951 845 801 992 q 1100 486 1100 699 q 949 128 1100 275 m 578 224 q 756 300 688 224 q 825 486 825 376 q 754 672 825 594 q 575 749 683 749 q 398 672 467 749 q 329 486 329 596 q 399 301 329 378 q 578 224 469 224 z "},"П":{"ha":1043,"x_min":86,"x_max":957,"o":"m 86 0 l 86 972 l 957 972 l 957 0 l 688 0 l 688 736 l 356 736 l 356 0 l 86 0 z "},"Р":{"ha":935,"x_min":86,"x_max":907,"o":"m 86 0 l 86 972 l 503 972 q 798 881 689 972 q 907 628 907 790 q 792 369 907 461 q 489 278 676 278 l 356 278 l 356 0 l 86 0 m 356 489 l 483 489 q 597 524 556 489 q 638 618 638 558 q 597 713 638 681 q 482 746 556 746 l 356 746 l 356 489 z "},"С":{"ha":1014,"x_min":53,"x_max":985,"o":"m 554 -19 q 198 124 343 -19 q 53 486 53 268 q 199 846 53 700 q 565 992 346 992 q 974 786 825 992 l 776 633 q 563 746 686 746 q 396 671 461 746 q 331 486 331 596 q 396 301 331 375 q 563 226 461 226 q 683 256 633 226 q 782 344 733 286 l 985 200 q 807 38 908 96 q 554 -19 706 -19 z "},"Т":{"ha":917,"x_min":32,"x_max":885,"o":"m 324 0 l 324 736 l 32 736 l 32 972 l 885 972 l 885 736 l 593 736 l 593 0 l 324 0 z "},"У":{"ha":1022,"x_min":0,"x_max":1022,"o":"m 314 -14 q 81 51 190 -14 l 186 246 q 296 213 236 213 q 381 254 344 213 l 0 972 l 300 972 l 521 515 l 729 972 l 1022 972 l 643 231 q 501 42 576 99 q 314 -14 425 -14 z "},"Ф":{"ha":1329,"x_min":36,"x_max":1293,"o":"m 529 -42 l 529 67 q 167 188 299 67 q 36 503 36 310 q 168 810 36 692 q 529 928 300 928 l 529 1014 l 800 1014 l 800 928 q 1161 810 1029 928 q 1293 503 1293 692 q 1162 188 1293 310 q 800 67 1031 67 l 800 -42 l 529 -42 m 529 306 l 529 689 q 372 638 432 689 q 313 499 313 588 q 372 356 313 407 q 529 306 431 306 m 800 306 q 958 356 899 306 q 1017 499 1017 407 q 957 638 1017 588 q 800 689 897 689 l 800 306 z "},"Х":{"ha":1017,"x_min":15,"x_max":1001,"o":"m 15 0 l 349 494 l 29 972 l 339 972 l 511 699 l 685 972 l 988 972 l 668 497 l 1001 0 l 692 0 l 506 293 l 318 0 l 15 0 z "},"Ц":{"ha":1072,"x_min":86,"x_max":1067,"o":"m 808 -194 l 808 0 l 86 0 l 86 972 l 356 972 l 356 236 l 688 236 l 688 972 l 957 972 l 957 236 l 1067 236 l 1036 -194 l 808 -194 z "},"Ч":{"ha":988,"x_min":58,"x_max":901,"o":"m 632 0 l 632 340 q 383 278 525 278 q 144 364 231 278 q 58 603 58 450 l 58 972 l 328 972 l 328 679 q 359 563 328 600 q 461 526 390 526 q 632 579 567 526 l 632 972 l 901 972 l 901 0 l 632 0 z "},"Ш":{"ha":1533,"x_min":86,"x_max":1447,"o":"m 86 0 l 86 972 l 356 972 l 356 236 l 632 236 l 632 972 l 901 972 l 901 236 l 1178 236 l 1178 972 l 1447 972 l 1447 0 l 86 0 z "},"Щ":{"ha":1563,"x_min":86,"x_max":1557,"o":"m 1299 -194 l 1299 0 l 86 0 l 86 972 l 356 972 l 356 236 l 632 236 l 632 972 l 901 972 l 901 236 l 1178 236 l 1178 972 l 1447 972 l 1447 236 l 1557 236 l 1526 -194 l 1299 -194 z "},"Ъ":{"ha":1097,"x_min":28,"x_max":1069,"o":"m 249 0 l 249 736 l 28 736 l 28 972 l 518 972 l 518 667 l 665 667 q 958 581 847 667 q 1069 336 1069 496 q 964 90 1069 179 q 679 0 858 0 l 249 0 m 518 226 l 658 226 q 763 256 726 226 q 800 343 800 286 q 763 425 800 394 q 660 456 725 456 l 518 456 l 518 226 z "},"Ы":{"ha":1376,"x_min":86,"x_max":1290,"o":"m 86 0 l 86 972 l 356 972 l 356 667 l 503 667 q 796 581 685 667 q 907 336 907 496 q 801 90 907 179 q 517 0 696 0 l 86 0 m 356 226 l 496 226 q 601 256 564 226 q 638 343 638 286 q 600 425 638 394 q 497 456 563 456 l 356 456 l 356 226 m 1021 0 l 1021 972 l 1290 972 l 1290 0 l 1021 0 z "},"Ь":{"ha":935,"x_min":86,"x_max":907,"o":"m 86 0 l 86 972 l 356 972 l 356 667 l 503 667 q 796 581 685 667 q 907 336 907 496 q 801 90 907 179 q 517 0 696 0 l 86 0 m 356 226 l 496 226 q 601 256 564 226 q 638 343 638 286 q 600 425 638 394 q 497 456 563 456 l 356 456 l 356 226 z "},"Э":{"ha":1014,"x_min":39,"x_max":960,"o":"m 458 -19 q 39 186 194 -19 l 235 325 q 450 219 329 219 q 592 268 532 219 q 675 396 651 317 l 357 396 l 357 586 l 672 586 q 588 706 646 660 q 450 751 529 751 q 239 654 325 751 l 57 810 q 447 992 207 992 q 813 846 667 992 q 960 486 960 700 q 815 124 960 268 q 458 -19 669 -19 z "},"Ю":{"ha":1500,"x_min":86,"x_max":1446,"o":"m 950 -19 q 635 90 767 -19 q 468 369 504 199 l 356 369 l 356 0 l 86 0 l 86 972 l 356 972 l 356 608 l 469 608 q 640 884 508 776 q 953 992 771 992 q 1307 846 1168 992 q 1446 486 1446 700 q 1306 128 1446 275 q 950 -19 1165 -19 m 794 299 q 825 260 794 299 q 953 222 856 222 q 1111 297 1050 222 q 1172 486 1172 372 q 1110 674 1172 597 q 950 750 1047 750 q 792 674 853 750 q 732 486 732 599 q 794 299 732 375 z "},"Я":{"ha":1022,"x_min":42,"x_max":936,"o":"m 42 0 l 274 339 q 74 640 74 424 q 187 888 74 803 q 476 972 300 972 l 936 972 l 936 0 l 667 0 l 667 294 l 549 294 l 353 0 l 42 0 m 489 501 l 667 501 l 667 743 l 490 743 q 383 711 422 743 q 344 621 344 679 q 383 534 344 567 q 489 501 421 501 z "},"а":{"ha":832,"x_min":33,"x_max":768,"o":"m 286 -17 q 104 45 175 -17 q 33 218 33 107 q 113 393 33 332 q 328 454 192 454 q 508 425 426 454 l 508 438 q 358 560 508 560 q 151 518 257 560 l 97 704 q 401 763 239 763 q 688 671 596 763 q 768 432 768 592 l 768 0 l 507 0 l 507 78 q 286 -17 422 -17 m 381 149 q 475 183 439 149 q 511 272 511 217 l 511 307 q 408 326 465 326 q 319 301 351 326 q 288 231 288 275 q 313 171 288 193 q 381 149 339 149 z "},"б":{"ha":911,"x_min":67,"x_max":871,"o":"m 468 -18 q 67 447 67 -18 q 73 581 67 521 q 100 708 79 640 q 156 823 121 775 q 254 908 192 871 q 401 960 317 946 l 785 1022 l 817 818 l 422 746 q 321 703 361 735 q 268 646 281 672 q 254 594 256 619 q 344 667 275 629 q 513 706 413 706 q 765 610 660 706 q 871 364 871 515 q 756 93 871 204 q 468 -18 640 -18 m 471 206 q 574 250 535 206 q 614 361 614 294 q 572 471 614 425 q 468 517 531 517 q 365 472 404 517 q 325 361 325 428 q 367 251 325 297 q 471 206 408 206 z "},"в":{"ha":846,"x_min":71,"x_max":797,"o":"m 71 0 l 71 751 l 517 751 q 722 683 654 751 q 771 561 771 638 q 654 393 771 444 q 762 326 726 369 q 797 207 797 282 q 722 55 797 110 q 513 0 647 0 l 71 0 m 328 171 l 436 171 q 508 190 482 171 q 533 242 533 208 q 508 292 533 272 q 433 311 482 311 l 328 311 l 328 171 m 328 453 l 417 453 q 486 471 461 453 q 511 519 511 489 q 488 566 511 549 q 421 583 464 583 l 328 583 l 328 453 z "},"г":{"ha":651,"x_min":71,"x_max":638,"o":"m 71 0 l 71 751 l 638 751 l 638 539 l 335 539 l 335 0 l 71 0 z "},"д":{"ha":907,"x_min":14,"x_max":907,"o":"m 14 -153 l 14 213 l 83 213 q 134 422 118 313 q 150 715 150 532 l 150 751 l 819 751 l 819 213 l 907 213 l 882 -153 l 657 -153 l 657 0 l 264 0 l 250 -153 l 14 -153 m 353 213 l 554 213 l 554 542 l 401 542 l 401 529 q 353 213 397 363 z "},"е":{"ha":840,"x_min":40,"x_max":799,"o":"m 443 -18 q 153 90 265 -18 q 40 375 40 199 q 147 655 40 542 q 419 768 254 768 q 701 651 604 768 q 799 357 799 535 q 797 303 799 321 l 294 303 q 457 179 326 179 q 624 256 546 179 l 769 135 q 443 -18 649 -18 m 290 438 l 551 438 q 510 537 544 500 q 421 574 475 574 q 335 537 369 574 q 290 438 301 500 z "},"ж":{"ha":1269,"x_min":-7,"x_max":1276,"o":"m -7 0 l 257 443 l 0 751 l 299 751 l 503 472 l 503 751 l 767 751 l 767 472 l 971 751 l 1269 751 l 1011 443 l 1276 0 l 986 0 l 833 257 l 767 176 l 767 0 l 503 0 l 503 176 l 435 257 l 283 0 l -7 0 z "},"з":{"ha":754,"x_min":7,"x_max":706,"o":"m 339 -19 q 155 3 226 -19 q 7 85 83 26 l 111 249 q 222 194 154 215 q 336 174 289 174 q 443 233 443 174 q 339 296 443 296 l 244 296 l 244 461 l 338 461 q 425 525 425 461 q 401 561 425 546 q 335 576 378 576 q 226 555 285 576 q 132 501 168 533 l 26 646 q 368 768 158 768 q 601 711 518 768 q 685 564 685 654 q 565 393 685 444 q 706 218 706 344 q 615 46 706 111 q 339 -19 524 -19 z "},"и":{"ha":890,"x_min":71,"x_max":819,"o":"m 71 0 l 71 751 l 326 751 l 326 375 l 576 751 l 819 751 l 819 0 l 564 0 l 564 376 l 314 0 l 71 0 z "},"й":{"ha":890,"x_min":71,"x_max":819,"o":"m 71 0 l 71 751 l 326 751 l 326 375 l 576 751 l 819 751 l 819 0 l 564 0 l 564 376 l 314 0 l 71 0 m 606 867 q 576 840 606 867 q 451 813 546 813 q 297 867 357 813 q 222 1019 236 921 l 360 1044 q 451 964 388 964 q 543 1044 515 964 l 681 1019 q 606 867 667 921 z "},"к":{"ha":838,"x_min":71,"x_max":844,"o":"m 71 0 l 71 751 l 335 751 l 335 472 l 539 751 l 838 751 l 581 443 l 844 0 l 554 0 l 411 240 l 335 149 l 335 0 l 71 0 z "},"л":{"ha":886,"x_min":14,"x_max":815,"o":"m 222 1 q 203 -4 222 1 q 131 -10 183 -10 q 14 1 78 -10 l 25 206 q 68 201 54 201 q 97 206 86 201 q 123 233 108 211 q 146 297 138 256 q 160 417 154 339 q 167 607 167 496 l 167 751 l 815 751 l 815 0 l 551 0 l 551 542 l 413 542 l 413 522 q 398 292 413 389 q 360 138 383 196 q 299 47 336 81 q 222 1 261 13 z "},"м":{"ha":1026,"x_min":71,"x_max":956,"o":"m 71 0 l 71 751 l 339 751 l 513 492 l 688 751 l 956 751 l 956 0 l 692 0 l 692 371 l 508 115 l 331 365 l 331 0 l 71 0 z "},"н":{"ha":886,"x_min":71,"x_max":815,"o":"m 71 0 l 71 751 l 335 751 l 335 485 l 551 485 l 551 751 l 815 751 l 815 0 l 551 0 l 551 272 l 335 272 l 335 0 l 71 0 z "},"о":{"ha":911,"x_min":40,"x_max":871,"o":"m 454 -18 q 158 97 276 -18 q 40 375 40 211 q 159 653 40 538 q 457 768 278 768 q 753 653 635 768 q 871 375 871 539 q 752 97 871 213 q 454 -18 633 -18 m 457 206 q 571 254 528 206 q 614 375 614 303 q 568 494 614 444 q 454 544 522 544 q 340 496 383 544 q 297 375 297 447 q 343 256 297 306 q 457 206 389 206 z "},"п":{"ha":875,"x_min":71,"x_max":804,"o":"m 71 0 l 71 751 l 804 751 l 804 0 l 540 0 l 540 539 l 335 539 l 335 0 l 71 0 z "},"р":{"ha":939,"x_min":71,"x_max":896,"o":"m 71 -222 l 71 751 l 335 751 l 335 651 q 563 768 431 768 q 799 660 701 768 q 896 376 896 553 q 799 91 896 199 q 564 -17 703 -17 q 335 92 428 -17 l 335 -222 l 71 -222 m 482 204 q 592 253 547 204 q 636 378 636 301 q 592 499 636 451 q 482 547 547 547 q 374 499 418 547 q 329 375 329 450 q 374 253 329 301 q 482 204 418 204 z "},"с":{"ha":790,"x_min":40,"x_max":768,"o":"m 433 -18 q 153 97 265 -18 q 40 375 40 211 q 154 652 40 538 q 443 767 268 767 q 764 599 658 767 l 588 471 q 451 544 535 544 q 339 496 381 544 q 297 375 297 447 q 339 253 297 301 q 447 204 381 204 q 523 224 492 204 q 589 283 554 243 l 768 154 q 433 -18 651 -18 z "},"т":{"ha":731,"x_min":14,"x_max":717,"o":"m 233 0 l 233 539 l 14 539 l 14 751 l 717 751 l 717 539 l 497 539 l 497 0 l 233 0 z "},"у":{"ha":869,"x_min":15,"x_max":854,"o":"m 293 -226 q 51 -161 168 -226 l 133 24 q 249 -17 200 -17 q 310 14 288 -17 l 15 751 l 292 751 l 442 299 l 583 751 l 854 751 l 579 18 q 467 -171 529 -115 q 293 -226 404 -226 z "},"ф":{"ha":1247,"x_min":42,"x_max":1206,"o":"m 492 -222 l 492 35 q 346 -12 419 -12 q 126 92 210 -12 q 42 379 42 197 q 126 660 42 557 q 347 764 211 764 q 492 710 422 764 l 492 972 l 756 972 l 756 710 q 900 764 822 764 q 1121 660 1036 764 q 1206 376 1206 556 q 1122 92 1206 196 q 901 -12 1038 -12 q 756 35 825 -12 l 756 -222 l 492 -222 m 428 200 q 492 214 464 200 l 492 536 q 428 551 461 551 q 333 503 365 551 q 301 375 301 454 q 333 248 301 296 q 428 200 365 200 m 819 200 q 914 248 882 200 q 946 378 946 296 q 914 503 946 456 q 819 551 882 551 q 756 536 786 551 l 756 214 q 819 200 783 200 z "},"х":{"ha":818,"x_min":11,"x_max":807,"o":"m 11 0 l 264 379 l 15 751 l 300 751 l 411 567 l 522 751 l 801 751 l 554 381 l 807 0 l 524 0 l 407 193 l 289 0 l 11 0 z "},"ц":{"ha":892,"x_min":71,"x_max":892,"o":"m 642 -153 l 642 0 l 71 0 l 71 751 l 335 751 l 335 213 l 540 213 l 540 751 l 804 751 l 804 213 l 892 213 l 867 -153 l 642 -153 z "},"ч":{"ha":851,"x_min":64,"x_max":781,"o":"m 517 0 l 517 242 q 331 208 443 208 q 138 275 213 208 q 64 460 64 342 l 64 751 l 329 751 l 329 539 q 408 424 329 424 q 517 453 478 424 l 517 751 l 781 751 l 781 0 l 517 0 z "},"ш":{"ha":1303,"x_min":71,"x_max":1232,"o":"m 71 0 l 71 751 l 335 751 l 335 213 l 519 213 l 519 751 l 783 751 l 783 213 l 968 213 l 968 751 l 1232 751 l 1232 0 l 71 0 z "},"щ":{"ha":1319,"x_min":71,"x_max":1319,"o":"m 1069 -153 l 1069 0 l 71 0 l 71 751 l 335 751 l 335 213 l 519 213 l 519 751 l 783 751 l 783 213 l 968 213 l 968 751 l 1232 751 l 1232 213 l 1319 213 l 1294 -153 l 1069 -153 z "},"ъ":{"ha":918,"x_min":7,"x_max":890,"o":"m 189 0 l 189 539 l 7 539 l 7 751 l 453 751 l 453 515 l 581 515 q 805 449 719 515 q 890 260 890 383 q 810 69 890 139 q 592 0 729 0 l 189 0 m 453 186 l 535 186 q 636 268 636 186 q 609 325 636 304 q 535 346 582 346 l 453 346 l 453 186 z "},"ы":{"ha":1192,"x_min":71,"x_max":1121,"o":"m 857 0 l 857 751 l 1121 751 l 1121 0 l 857 0 m 71 0 l 71 751 l 335 751 l 335 515 l 463 515 q 687 449 601 515 q 772 260 772 383 q 692 69 772 139 q 474 0 611 0 l 71 0 m 335 186 l 417 186 q 518 268 518 186 q 491 325 518 304 q 417 346 464 346 l 335 346 l 335 186 z "},"ь":{"ha":800,"x_min":71,"x_max":772,"o":"m 71 0 l 71 751 l 335 751 l 335 515 l 463 515 q 687 449 601 515 q 772 260 772 383 q 692 69 772 139 q 474 0 611 0 l 71 0 m 335 186 l 417 186 q 518 268 518 186 q 491 325 518 304 q 417 346 464 346 l 335 346 l 335 186 z "},"э":{"ha":775,"x_min":14,"x_max":735,"o":"m 342 -18 q 14 144 131 -18 l 178 265 q 328 190 246 190 q 420 219 381 190 q 478 299 460 249 l 275 299 l 275 450 l 478 450 q 420 528 460 499 q 331 558 381 558 q 178 483 236 558 l 21 613 q 332 767 126 767 q 621 652 507 767 q 735 375 735 538 q 622 97 735 211 q 342 -18 510 -18 z "},"ю":{"ha":1256,"x_min":71,"x_max":1215,"o":"m 814 -18 q 563 64 665 -18 q 426 278 460 146 l 335 278 l 335 0 l 71 0 l 71 751 l 335 751 l 335 479 l 429 479 q 568 688 465 607 q 817 768 671 768 q 1104 655 993 768 q 1215 375 1215 542 q 1103 97 1215 211 q 814 -18 992 -18 m 817 206 q 922 253 886 206 q 958 375 958 301 q 919 496 958 447 q 814 544 881 544 q 708 497 744 544 q 672 375 672 449 q 711 254 672 303 q 817 206 750 206 z "},"я":{"ha":860,"x_min":18,"x_max":789,"o":"m 18 0 l 194 261 q 56 489 56 328 q 125 668 56 603 q 371 751 204 751 l 789 751 l 789 0 l 524 0 l 524 217 l 464 217 l 319 0 l 18 0 m 419 400 l 524 400 l 524 553 l 419 553 q 322 475 322 553 q 419 400 322 400 z "},"ё":{"ha":840,"x_min":40,"x_max":799,"o":"m 443 -18 q 153 90 265 -18 q 40 375 40 199 q 147 655 40 542 q 419 768 254 768 q 701 651 604 768 q 799 357 799 535 q 797 303 799 321 l 294 303 q 457 179 326 179 q 624 256 546 179 l 769 135 q 443 -18 649 -18 m 290 438 l 551 438 q 510 537 544 500 q 421 574 475 574 q 335 537 369 574 q 290 438 301 500 m 153 815 l 153 1014 l 382 1014 l 382 815 l 153 815 m 457 815 l 457 1014 l 686 1014 l 686 815 l 457 815 z "},"ђ":{"ha":881,"x_min":-17,"x_max":815,"o":"m 560 -19 q 411 0 476 -19 l 425 213 q 446 211 432 211 q 523 244 494 211 q 551 338 551 278 q 523 431 551 397 q 446 464 494 464 q 365 431 396 464 q 335 338 335 397 l 335 0 l 71 0 l 71 751 l -17 751 l -17 929 l 71 929 l 71 1014 l 335 1014 l 335 929 l 553 929 l 553 751 l 335 751 l 335 579 q 560 699 428 699 q 747 624 679 699 q 815 422 815 550 l 815 257 q 747 54 815 128 q 560 -19 679 -19 z "},"ѓ":{"ha":651,"x_min":71,"x_max":638,"o":"m 71 0 l 71 751 l 638 751 l 638 539 l 335 539 l 335 0 l 71 0 m 200 815 l 344 1072 l 590 993 l 386 815 l 200 815 z "},"є":{"ha":775,"x_min":40,"x_max":761,"o":"m 433 -18 q 153 97 265 -18 q 40 375 40 211 q 154 652 40 538 q 443 767 268 767 q 754 613 649 767 l 597 483 q 444 558 539 558 q 354 528 393 558 q 296 450 315 499 l 500 450 l 500 299 l 296 299 q 354 219 314 249 q 447 190 394 190 q 597 265 529 190 l 761 144 q 433 -18 644 -18 z "},"ѕ":{"ha":714,"x_min":14,"x_max":676,"o":"m 369 -17 q 14 94 168 -17 l 113 254 q 371 168 243 168 q 438 211 438 168 q 410 244 438 232 q 317 275 383 257 q 117 362 185 311 q 50 518 50 413 q 134 701 50 635 q 351 767 218 767 q 661 679 525 767 l 571 513 q 349 582 446 582 q 288 543 288 582 q 314 510 288 524 q 410 476 340 497 q 515 441 474 458 q 597 396 557 424 q 657 328 638 368 q 676 235 676 289 q 593 49 676 114 q 369 -17 510 -17 z "},"і":{"ha":417,"x_min":71,"x_max":346,"o":"m 76 0 l 76 751 l 340 751 l 340 0 l 76 0 m 71 819 l 71 1014 l 346 1014 l 346 819 l 71 819 z "},"ї":{"ha":417,"x_min":-58,"x_max":475,"o":"m -58 815 l -58 1014 l 171 1014 l 171 815 l -58 815 m 246 815 l 246 1014 l 475 1014 l 475 815 l 246 815 m 76 0 l 76 751 l 340 751 l 340 0 l 76 0 z "},"ј":{"ha":419,"x_min":-36,"x_max":346,"o":"m 72 -226 q -36 -217 39 -226 l -36 -42 q -1 -43 -25 -43 q 58 -23 39 -43 q 76 44 76 -3 l 76 751 l 340 751 l 340 33 q 273 -165 340 -104 q 72 -226 206 -226 m 71 819 l 71 1014 l 346 1014 l 346 819 l 71 819 z "},"љ":{"ha":1281,"x_min":14,"x_max":1253,"o":"m 551 0 l 551 542 l 413 542 l 413 522 q 398 292 413 389 q 360 138 383 196 q 299 47 336 81 q 222 1 261 13 q 131 -10 183 -10 q 14 1 78 -10 l 25 206 q 68 201 54 201 q 97 206 86 201 q 123 233 108 211 q 146 297 138 256 q 160 417 154 339 q 167 607 167 496 l 167 751 l 815 751 l 815 515 l 943 515 q 1167 449 1082 515 q 1253 260 1253 383 q 1172 69 1253 139 q 954 0 1092 0 l 551 0 m 815 186 l 897 186 q 999 268 999 186 q 972 325 999 304 q 897 346 944 346 l 815 346 l 815 186 z "},"њ":{"ha":1281,"x_min":71,"x_max":1253,"o":"m 71 0 l 71 751 l 335 751 l 335 513 l 551 513 l 551 751 l 815 751 l 815 513 l 936 513 q 1166 448 1079 513 q 1253 258 1253 383 q 1171 68 1253 136 q 947 0 1089 0 l 551 0 l 551 314 l 335 314 l 335 0 l 71 0 m 815 189 l 897 189 q 999 264 999 189 q 897 335 999 335 l 815 335 l 815 189 z "},"ћ":{"ha":881,"x_min":-17,"x_max":815,"o":"m 71 0 l 71 751 l -17 751 l -17 929 l 71 929 l 71 1014 l 335 1014 l 335 929 l 553 929 l 553 751 l 335 751 l 335 579 q 560 699 428 699 q 747 624 679 699 q 815 422 815 550 l 815 0 l 551 0 l 551 338 q 523 431 551 397 q 446 464 494 464 q 365 431 396 464 q 335 338 335 397 l 335 0 l 71 0 z "},"ќ":{"ha":838,"x_min":71,"x_max":844,"o":"m 71 0 l 71 751 l 335 751 l 335 472 l 539 751 l 838 751 l 581 443 l 844 0 l 554 0 l 411 240 l 335 149 l 335 0 l 71 0 m 293 815 l 438 1072 l 683 993 l 479 815 l 293 815 z "},"ў":{"ha":869,"x_min":15,"x_max":854,"o":"m 293 -226 q 51 -161 168 -226 l 133 24 q 249 -17 200 -17 q 310 14 288 -17 l 15 751 l 292 751 l 442 299 l 583 751 l 854 751 l 579 18 q 467 -171 529 -115 q 293 -226 404 -226 m 597 867 q 566 840 597 867 q 442 813 536 813 q 287 867 347 813 q 213 1019 226 921 l 350 1044 q 442 964 378 964 q 533 1044 506 964 l 671 1019 q 597 867 657 921 z "},"џ":{"ha":875,"x_min":71,"x_max":804,"o":"m 311 -153 l 311 0 l 71 0 l 71 751 l 335 751 l 335 213 l 540 213 l 540 751 l 804 751 l 804 0 l 561 0 l 561 -153 l 311 -153 z "},"Ґ":{"ha":814,"x_min":86,"x_max":786,"o":"m 86 0 l 86 972 l 528 972 l 528 1167 l 756 1167 l 786 736 l 356 736 l 356 0 l 86 0 z "},"ґ":{"ha":651,"x_min":71,"x_max":638,"o":"m 71 0 l 71 751 l 388 751 l 388 904 l 613 904 l 638 539 l 335 539 l 335 0 l 71 0 z "},"–":{"ha":733,"x_min":56,"x_max":678,"o":"m 56 321 l 56 547 l 678 547 l 678 321 l 56 321 z "},"—":{"ha":1247,"x_min":56,"x_max":1192,"o":"m 56 321 l 56 547 l 1192 547 l 1192 321 l 56 321 z "},"‘":{"ha":394,"x_min":56,"x_max":363,"o":"m 56 476 l 56 697 q 128 910 56 844 q 340 979 201 975 l 363 878 q 224 756 224 861 l 224 747 l 329 747 l 329 476 l 56 476 z "},"’":{"ha":394,"x_min":32,"x_max":339,"o":"m 54 469 l 32 571 q 171 693 171 586 l 171 701 l 65 701 l 65 972 l 339 972 l 339 751 q 266 539 339 604 q 54 469 193 474 z "},"‚":{"ha":394,"x_min":28,"x_max":335,"o":"m 49 -232 l 28 -131 q 167 -6 167 -114 l 167 0 l 60 0 l 60 271 l 335 271 l 335 50 q 261 -162 335 -97 q 49 -232 188 -228 z "},"“":{"ha":760,"x_min":56,"x_max":728,"o":"m 56 476 l 56 697 q 128 908 56 842 q 338 979 200 975 l 358 878 q 224 757 224 861 l 224 747 l 326 747 l 326 476 l 56 476 m 424 476 l 424 697 q 497 908 424 842 q 706 979 569 975 l 728 878 q 592 754 592 861 l 592 747 l 694 747 l 694 476 l 424 476 z "},"”":{"ha":760,"x_min":32,"x_max":704,"o":"m 54 469 l 32 571 q 168 694 168 586 l 168 701 l 65 701 l 65 972 l 336 972 l 336 751 q 264 540 336 606 q 54 469 192 474 m 424 469 l 401 571 q 538 694 538 586 l 538 701 l 433 701 l 433 972 l 704 972 l 704 751 q 632 540 704 606 q 424 469 560 474 z "},"„":{"ha":758,"x_min":28,"x_max":700,"o":"m 49 -232 l 28 -131 q 163 -10 163 -114 l 163 0 l 60 0 l 60 271 l 331 271 l 331 50 q 258 -162 331 -96 q 49 -232 186 -228 m 418 -232 l 397 -131 q 532 -10 532 -114 l 532 0 l 429 0 l 429 271 l 700 271 l 700 50 q 628 -162 700 -96 q 418 -232 556 -228 z "},"†":{"ha":569,"x_min":56,"x_max":514,"o":"m 215 310 l 229 685 l 56 667 l 56 811 l 228 793 l 207 972 l 363 972 l 342 793 l 514 811 l 514 667 l 340 685 l 354 310 l 215 310 z "},"‡":{"ha":597,"x_min":69,"x_max":528,"o":"m 221 0 l 242 179 l 69 161 l 69 306 l 244 288 l 226 486 l 244 685 l 69 667 l 69 811 l 242 793 l 221 972 l 376 972 l 356 793 l 528 811 l 528 667 l 353 685 l 371 486 l 353 288 l 528 306 l 528 161 l 356 179 l 376 0 l 221 0 z "},"•":{"ha":694,"x_min":113,"x_max":582,"o":"m 513 322 q 479 288 513 322 q 347 254 444 254 q 181 323 250 254 q 113 490 113 392 q 181 656 113 588 q 347 724 250 724 q 513 655 444 724 q 582 488 582 586 q 513 322 582 390 z "},"…":{"ha":1167,"x_min":60,"x_max":1107,"o":"m 60 0 l 60 267 l 329 267 l 329 0 l 60 0 m 449 0 l 449 267 l 718 267 l 718 0 l 449 0 m 838 0 l 838 267 l 1107 267 l 1107 0 l 838 0 z "},"‰":{"ha":1799,"x_min":49,"x_max":1750,"o":"m 156 0 l 906 972 l 1093 972 l 343 0 l 156 0 m 1129 63 q 1094 24 1129 63 q 949 -14 1058 -14 q 769 62 839 -14 q 699 249 699 138 q 768 434 699 358 q 950 510 838 510 q 1131 434 1061 510 q 1200 247 1200 358 q 1129 63 1200 139 m 892 170 q 903 155 892 170 q 950 139 915 139 q 1008 169 985 139 q 1031 249 1031 200 q 1008 326 1031 296 q 949 357 985 357 q 890 327 911 357 q 868 247 868 297 q 892 170 868 201 m 1679 63 q 1644 24 1679 63 q 1499 -14 1608 -14 q 1319 62 1389 -14 q 1249 249 1249 138 q 1318 434 1249 358 q 1500 510 1388 510 q 1681 434 1611 510 q 1750 247 1750 358 q 1679 63 1750 139 m 1442 170 q 1453 155 1442 170 q 1500 139 1465 139 q 1558 169 1535 139 q 1581 249 1581 200 q 1558 326 1581 296 q 1499 357 1535 357 q 1440 327 1461 357 q 1418 247 1418 297 q 1442 170 1418 201 m 299 463 q 118 538 188 463 q 49 725 49 614 q 118 910 49 835 q 300 986 188 986 q 481 910 411 986 q 550 724 550 835 q 479 538 550 614 q 299 463 408 463 m 242 646 q 253 631 242 646 q 300 615 265 615 q 358 646 335 615 q 381 725 381 676 q 357 802 381 771 q 299 833 333 833 q 240 803 263 833 q 218 724 218 772 q 242 646 218 676 z "},"‹":{"ha":496,"x_min":42,"x_max":454,"o":"m 264 42 l 42 339 l 42 406 l 264 703 l 454 610 l 274 372 l 454 136 l 264 42 z "},"›":{"ha":496,"x_min":42,"x_max":454,"o":"m 232 42 l 42 135 l 222 372 l 42 608 l 232 703 l 454 406 l 454 339 l 232 42 z "},"⁄":{"ha":696,"x_min":-101,"x_max":765,"o":"m -101 -136 l 546 1053 l 765 1053 l 119 -136 l -101 -136 z "},"€":{"ha":947,"x_min":51,"x_max":924,"o":"m 585 -19 q 310 70 421 -19 q 164 310 200 160 l 51 310 l 51 454 l 146 454 q 144 486 144 464 q 146 524 144 511 l 51 524 l 51 668 l 168 668 q 316 901 207 811 q 586 992 425 992 q 919 835 797 992 l 749 675 q 588 761 681 761 q 436 664 482 761 l 653 664 l 653 524 l 406 524 q 404 486 404 513 q 406 454 404 465 l 653 454 l 653 314 l 433 314 q 593 211 482 211 q 757 303 682 211 l 924 146 q 585 -19 796 -19 z "},"№":{"ha":1525,"x_min":86,"x_max":1468,"o":"m 86 0 l 86 972 l 338 972 l 640 486 l 640 972 l 921 972 l 921 0 l 685 0 l 367 506 l 367 0 l 86 0 m 1036 153 l 1036 315 l 1456 315 l 1456 153 l 1036 153 m 1406 447 q 1374 413 1406 447 q 1244 379 1343 379 q 1084 447 1146 379 q 1022 611 1022 514 q 1084 779 1022 711 q 1246 847 1146 847 q 1406 780 1344 847 q 1468 615 1468 713 q 1406 447 1468 515 m 1195 543 q 1205 529 1195 543 q 1246 515 1215 515 q 1296 543 1276 515 q 1315 614 1315 571 q 1295 683 1315 654 q 1244 711 1275 711 q 1194 683 1214 711 q 1175 613 1175 656 q 1195 543 1175 571 z "},"℗":{"ha":1153,"x_min":74,"x_max":1079,"o":"m 932 130 q 858 55 932 130 q 575 -19 785 -19 q 219 129 365 -19 q 74 486 74 278 q 221 842 74 693 q 578 992 368 992 q 933 843 788 992 q 1079 486 1079 694 q 932 130 1079 279 m 575 36 q 892 169 764 36 q 1021 489 1021 301 q 893 806 1021 675 q 578 936 765 936 q 260 803 389 936 q 132 483 132 671 q 260 167 132 297 q 575 36 388 36 m 379 228 l 379 763 l 608 763 q 772 712 711 763 q 832 571 832 661 q 768 431 832 481 q 603 381 704 381 l 529 381 l 529 228 l 379 228 m 529 497 l 597 497 q 660 516 638 497 q 682 568 682 535 q 597 638 682 638 l 529 638 l 529 497 z "},"™":{"ha":965,"x_min":22,"x_max":919,"o":"m 150 544 l 150 868 l 22 868 l 22 972 l 397 972 l 397 868 l 269 868 l 269 544 l 150 544 m 464 544 l 464 972 l 590 972 l 692 807 l 794 972 l 919 972 l 919 544 l 801 544 l 801 794 l 693 625 l 689 625 l 581 794 l 581 544 l 464 544 z "},"∂":{"ha":694,"x_min":0,"x_max":694,"o":"m 0 0 l 0 972 l 694 972 l 694 0 l 0 0 m 113 68 l 583 68 l 347 422 l 113 68 m 68 133 l 306 486 l 68 839 l 68 133 m 625 133 l 625 839 l 388 486 l 625 133 m 347 549 l 583 903 l 113 903 l 347 549 z "},"∆":{"ha":1056,"x_min":8,"x_max":1047,"o":"m 8 0 l 403 972 l 653 972 l 1047 0 l 8 0 m 394 236 l 667 236 l 531 643 l 394 236 z "},"∏":{"ha":694,"x_min":0,"x_max":694,"o":"m 0 0 l 0 972 l 694 972 l 694 0 l 0 0 m 113 68 l 583 68 l 347 422 l 113 68 m 68 133 l 306 486 l 68 839 l 68 133 m 625 133 l 625 839 l 388 486 l 625 133 m 347 549 l 583 903 l 113 903 l 347 549 z "},"∑":{"ha":694,"x_min":0,"x_max":694,"o":"m 0 0 l 0 972 l 694 972 l 694 0 l 0 0 m 113 68 l 583 68 l 347 422 l 113 68 m 68 133 l 306 486 l 68 839 l 68 133 m 625 133 l 625 839 l 388 486 l 625 133 m 347 549 l 583 903 l 113 903 l 347 549 z "},"−":{"ha":889,"x_min":103,"x_max":785,"o":"m 103 374 l 103 606 l 785 606 l 785 374 l 103 374 z "},"√":{"ha":828,"x_min":-4,"x_max":931,"o":"m 392 -178 l 143 310 l -4 310 l -4 474 l 239 474 l 372 217 l 744 1108 l 931 1108 l 392 -178 z "},"∞":{"ha":1235,"x_min":63,"x_max":1172,"o":"m 351 188 q 140 274 218 188 q 63 494 63 360 q 138 709 63 626 q 344 792 213 792 q 493 748 433 792 q 617 617 553 704 q 738 748 678 704 q 890 792 799 792 q 1097 709 1022 792 q 1172 494 1172 626 q 1097 274 1172 361 q 890 188 1022 188 q 617 351 740 188 q 497 230 558 272 q 351 188 435 188 m 347 379 q 507 488 431 379 q 346 601 425 601 q 273 569 300 601 q 246 489 246 536 q 273 410 246 440 q 347 379 300 379 m 888 379 q 963 410 936 379 q 989 490 989 442 q 960 569 989 538 q 883 601 931 601 q 726 488 808 601 q 888 379 803 379 z "},"∫":{"ha":694,"x_min":0,"x_max":694,"o":"m 0 0 l 0 972 l 694 972 l 694 0 l 0 0 m 113 68 l 583 68 l 347 422 l 113 68 m 68 133 l 306 486 l 68 839 l 68 133 m 625 133 l 625 839 l 388 486 l 625 133 m 347 549 l 583 903 l 113 903 l 347 549 z "},"≈":{"ha":889,"x_min":50,"x_max":828,"o":"m 188 169 l 50 206 q 120 388 63 307 q 267 469 178 469 q 443 428 324 469 q 597 388 563 388 q 690 461 665 388 l 828 426 q 758 242 813 322 q 611 161 703 161 q 429 203 557 161 q 275 244 301 244 q 222 222 246 244 q 188 169 197 200 m 188 518 l 50 554 q 120 737 63 656 q 267 818 178 818 q 443 777 324 818 q 597 736 563 736 q 690 810 665 736 l 828 775 q 758 590 813 671 q 611 510 703 510 q 429 551 557 510 q 275 593 301 593 q 222 571 246 593 q 188 518 197 549 z "},"≠":{"ha":888,"x_min":103,"x_max":785,"o":"m 319 -15 l 128 79 l 181 186 l 103 186 l 103 418 l 294 418 l 364 560 l 103 560 l 103 792 l 478 792 l 578 993 l 768 899 l 715 792 l 785 792 l 785 560 l 601 560 l 532 418 l 785 418 l 785 186 l 418 186 l 319 -15 z "},"≤":{"ha":889,"x_min":106,"x_max":788,"o":"m 106 -22 l 106 196 l 788 196 l 788 -22 l 106 -22 m 786 229 l 107 463 l 107 708 l 786 942 l 786 696 l 332 586 l 786 476 l 786 229 z "},"≥":{"ha":889,"x_min":107,"x_max":789,"o":"m 107 -22 l 107 196 l 789 196 l 789 -22 l 107 -22 m 108 229 l 108 476 l 563 586 l 108 696 l 108 942 l 788 708 l 788 463 l 108 229 z "},"◊":{"ha":889,"x_min":75,"x_max":814,"o":"m 344 -49 l 75 494 l 347 1038 l 542 1038 l 814 494 l 542 -49 l 344 -49 m 444 174 l 589 494 l 444 815 l 299 494 l 444 174 z "},"":{"ha":694,"x_min":103,"x_max":593,"o":"m 347 813 q 183 868 247 813 q 103 1025 118 924 l 250 1051 q 347 968 281 968 q 446 1051 415 968 l 593 1025 q 513 868 578 924 q 347 813 449 813 z "},"":{"ha":694,"x_min":118,"x_max":576,"o":"m 502 867 q 472 840 502 867 q 347 813 442 813 q 192 867 253 813 q 118 1019 132 921 l 256 1044 q 347 964 283 964 q 439 1044 411 964 l 576 1019 q 502 867 563 921 z "},"":{"ha":694,"x_min":0,"x_max":694,"o":"m 0 0 l 0 972 l 694 972 l 694 0 l 0 0 m 113 68 l 583 68 l 347 422 l 113 68 m 68 133 l 306 486 l 68 839 l 68 133 m 625 133 l 625 839 l 388 486 l 625 133 m 347 549 l 583 903 l 113 903 l 347 549 z "},"ﬀ":{"ha":1122,"x_min":31,"x_max":1111,"o":"m 118 0 l 118 540 l 31 540 l 31 747 l 118 747 l 118 764 q 182 958 118 894 q 378 1024 247 1024 q 550 1003 481 1024 l 550 817 q 451 832 501 832 q 376 761 376 832 l 376 743 l 549 743 l 549 540 l 381 540 l 381 0 l 118 0 m 679 0 l 679 540 l 590 540 l 590 743 l 679 743 l 679 764 q 743 958 679 894 q 939 1024 807 1024 q 1111 1003 1042 1024 l 1111 817 q 1013 832 1063 832 q 938 761 938 832 l 938 743 l 1110 743 l 1110 540 l 942 540 l 942 0 l 679 0 z "},"ﬁ":{"ha":978,"x_min":31,"x_max":907,"o":"m 118 0 l 118 540 l 31 540 l 31 747 l 118 747 l 118 764 q 182 958 118 894 q 378 1024 247 1024 q 550 1003 481 1024 l 550 817 q 451 832 501 832 q 376 761 376 832 l 376 743 l 549 743 l 549 540 l 381 540 l 381 0 l 118 0 m 638 0 l 638 751 l 901 751 l 901 0 l 638 0 m 632 819 l 632 1014 l 907 1014 l 907 819 l 632 819 z "},"ﬂ":{"ha":978,"x_min":31,"x_max":901,"o":"m 118 0 l 118 540 l 31 540 l 31 747 l 118 747 l 118 764 q 182 958 118 894 q 378 1024 247 1024 q 550 1003 481 1024 l 550 817 q 451 832 501 832 q 376 761 376 832 l 376 743 l 549 743 l 549 540 l 381 540 l 381 0 l 118 0 m 638 0 l 638 1014 l 901 1014 l 901 0 l 638 0 z "},"ﬃ":{"ha":1539,"x_min":31,"x_max":1468,"o":"m 118 0 l 118 540 l 31 540 l 31 747 l 118 747 l 118 764 q 182 958 118 894 q 378 1024 247 1024 q 550 1003 481 1024 l 550 817 q 451 832 501 832 q 376 761 376 832 l 376 743 l 549 743 l 549 540 l 381 540 l 381 0 l 118 0 m 679 0 l 679 540 l 590 540 l 590 743 l 679 743 l 679 764 q 743 958 679 894 q 939 1024 807 1024 q 1111 1003 1042 1024 l 1111 817 q 1013 832 1063 832 q 938 761 938 832 l 938 743 l 1110 743 l 1110 540 l 942 540 l 942 0 l 679 0 m 1199 0 l 1199 751 l 1463 751 l 1463 0 l 1199 0 m 1193 819 l 1193 1014 l 1468 1014 l 1468 819 l 1193 819 z "},"ﬄ":{"ha":1539,"x_min":31,"x_max":1463,"o":"m 118 0 l 118 540 l 31 540 l 31 747 l 118 747 l 118 764 q 182 958 118 894 q 378 1024 247 1024 q 550 1003 481 1024 l 550 817 q 451 832 501 832 q 376 761 376 832 l 376 743 l 549 743 l 549 540 l 381 540 l 381 0 l 118 0 m 679 0 l 679 540 l 590 540 l 590 743 l 679 743 l 679 764 q 743 958 679 894 q 939 1024 807 1024 q 1111 1003 1042 1024 l 1111 817 q 1013 832 1063 832 q 938 761 938 832 l 938 743 l 1110 743 l 1110 540 l 942 540 l 942 0 l 679 0 m 1199 0 l 1199 1014 l 1463 1014 l 1463 0 l 1199 0 z "}}}
